<svg fill="black" xmlns="http://www.w3.org/2000/svg" viewBox="63.58 102.35 433.78 483.04"> <path fill-rule="evenodd" clip-rule="evenodd" d="M486.752 368.45C480.567 369.058 474.383 369.665 468.198 370.274C438.58 372.54 408.973 377.274 379.581 380.115C378.849 378.922 377.416 379.118 376.547 379.947C373.614 379.69 370.327 377.445 367.67 379.78C367.584 379.768 367.497 379.754 367.41 379.745C362.68 370.652 359.41 360.953 356.237 351.241C354.211 345.27 351.486 339.489 346.45 335.48C337.856 329.505 318.164 317.388 308.072 317.897C307.904 316.087 307.062 314.222 305.679 313.017C308.727 307.812 296.539 304.416 295.68 305.019C296.231 287.629 288.064 272.527 270.055 269.064C253.922 265.697 230.976 265.132 222.299 282.019C221.345 281.911 211.596 281.86 210.652 281.966C209.186 280.106 193.079 297.736 199.68 303.873C140.661 330.023 107.102 326.903 90.7666 400.417C88.5582 407.323 88.3973 414.88 86.0653 421.632C77.7688 441.036 71.0394 461.697 69.3647 482.811C65.3198 483.849 64.8546 490.992 69.5398 492.025C71.3295 492.421 72.826 492.96 74.131 493.984C73.1109 511.286 77.2888 550.81 79.9213 550.688C85.2889 567.798 109.231 572.627 126.182 566.614C123.26 572.12 126.182 575.582 126.182 578.524C187.174 580.835 253.862 579.504 314.837 582.674C322.637 582.563 330.841 584.593 338.534 583.425C343.226 582.298 343.233 574.909 338.474 573.996L359.269 569.472C358.804 569.296 367.84 563.276 374.67 552.027C381.027 539.443 376.7 524.252 379.581 510.564C402.078 508.721 424.947 507.933 447.197 504.117C450.231 513.209 463.364 502.335 467.539 497.961C467.534 497.955 467.529 497.948 467.523 497.941C469.544 497.388 471.164 495.491 471.218 493.246C472.635 491.218 472.932 488.36 471.573 486.401C477.801 450.41 487.294 413.663 490.726 377.334C491.939 377.065 493.081 376.532 494.05 375.712L493.971 375.633C495.612 373.801 495.931 370.638 493.196 369.081C490.989 367.824 489.146 368.214 486.752 368.45Z" fill="white"></path> <path fill-rule="evenodd" clip-rule="evenodd" d="M223.423 278.097C225.261 273.471 231.473 275.269 230.78 280.129C230.366 283.039 228.774 286.114 227.344 288.665C226.18 290.741 224.852 292.768 223.052 294.324C226.257 297.319 229.584 300.205 232.995 302.945C236.717 305.934 240.631 308.689 244.676 311.222C248.224 313.443 251.931 315.41 255.275 317.945C258.385 320.3 261.217 323.134 262.658 326.833C264.194 330.772 263.527 334.84 262.396 338.776L262.266 339.221C261.111 343.121 259.111 347.822 261.884 351.496C263.296 353.367 265.348 354.691 267.119 356.187C268.694 357.516 270.172 358.961 271.528 360.514C274.484 363.898 276.888 367.706 278.405 371.95L278.541 372.335C279.841 376.092 280.792 380.693 279.034 384.381C278.53 385.438 276.904 385.095 276.622 384.065C275.984 381.733 276.017 379.291 275.482 376.926C274.925 374.467 273.998 372.132 272.787 369.923C270.445 365.65 267.273 362 263.526 358.914L262.404 358C259.48 355.597 256.794 353.048 256.201 349.071C255.566 344.816 257.268 340.762 258.363 336.735C259.125 333.928 259.374 331.238 258.55 328.702C257.543 330.348 256.169 331.91 255.083 333.304C252.919 336.081 250.734 338.841 248.555 341.606C246.321 344.441 244.142 347.321 242.067 350.275C241.139 351.597 240.221 352.927 239.306 354.258C238.618 355.258 237.658 356.257 236.908 357.278C237.09 357.823 237.076 358.452 236.746 358.899C232.768 364.282 227.108 353.05 225.632 350.212C222.627 344.433 220.39 338.293 217.374 332.515C214.249 326.525 210.691 320.695 206.725 315.226C204.326 311.919 201.637 308.812 199.443 305.399C194.273 310.095 187.47 313.242 181.221 316.097C174.356 319.232 167.223 321.794 160.184 324.514L158.104 325.323C145.975 330.064 133.55 335.273 123.469 343.694C111.622 353.59 104.614 367.383 99.3963 381.666C93.3901 398.109 88.4212 414.995 83.7892 431.871C81.4188 440.505 79.1698 449.179 77.0554 457.88C75.1922 465.546 73.6478 473.289 71.4909 480.876C75.8652 480.721 80.8541 482.417 84.5887 482.907C101.609 485.138 118.4 488.695 134.47 494.854C136.454 495.615 137.029 497.6 136.596 499.209C137.741 498.886 138.885 498.558 140.03 498.236C138.776 496.311 139.374 492.87 139.473 490.737L139.479 490.59C139.58 487.748 139.888 484.902 140.088 482.065C140.468 476.656 140.963 471.286 141.621 465.909L141.789 464.564C142.535 458.713 143.086 452.828 143.9 446.987L143.996 446.318C143.606 444.824 143.151 443.348 142.675 441.878C141.404 437.963 139.61 434.278 138.039 430.486C137.853 430.04 138.488 429.783 138.785 430.051C141.447 432.45 143.561 435.492 145.26 438.674C145.289 438.524 145.315 438.374 145.346 438.224L145.54 437.268C146.018 434.938 146.599 432.486 148.026 430.596C148.178 430.395 148.479 430.353 148.623 430.596C149.989 432.911 150.142 435.843 150.352 438.477C150.589 441.458 150.619 444.475 150.577 447.464C150.495 453.304 150.084 459.161 149.757 464.991C149.436 470.721 148.805 476.378 147.992 482.051L147.838 483.115C147.44 485.815 147.115 488.549 146.591 491.231L146.443 491.961C146.162 493.291 145.99 495.166 145.432 496.724C159.784 492.715 174.158 488.797 188.56 484.948C198.968 482.165 209.388 479.425 219.803 476.667C220.353 475.675 221.037 474.748 221.891 473.92C224.705 471.19 228.434 469.973 231.854 472.074C232.132 472.245 232.155 472.681 231.854 472.847C231.199 473.205 230.542 473.573 229.897 473.957L236.151 472.26C240.826 470.991 245.556 469.406 250.34 468.521C259.153 464.166 268.63 461.013 277.914 457.897L279.007 457.526C283.761 455.903 288.677 454.086 293.588 453.186C297.183 452.528 301.403 453.323 302.849 457.012C304.679 458.22 306.401 459.639 308.063 461.036C309.264 462.045 310.416 463.118 311.587 464.162L311.803 464.352C312.76 465.184 313.519 465.741 313.754 467.066C313.875 467.75 313.441 468.674 312.599 468.584C310.021 468.307 307.926 465.315 306.178 463.528C304.827 462.147 303.466 460.719 302.233 459.201C301.515 459.593 300.53 459.523 300.073 458.655C297.701 454.157 291.204 457.274 287.609 458.341L282.46 459.867C279.885 460.632 277.312 461.4 274.742 462.181C267.681 464.329 260.655 466.733 253.529 468.705C254.167 469.407 254.079 470.656 252.868 471.131C247.29 473.322 241.172 474.456 235.377 475.96C231.719 476.91 228.063 477.866 224.408 478.828C223.781 479.845 223.33 480.995 223.14 482.334C222.443 487.258 223.788 492.939 225.098 497.701L225.296 498.412C226.373 502.241 227.958 506.934 231.256 509.352C232.061 509.941 233.086 510.352 234.119 510.444C240.576 507.116 247.031 503.788 253.491 500.466C254.688 499.85 255.793 500.684 256.062 501.675C258.34 501.3 260.612 500.71 262.682 500.007C266.16 498.824 268.875 496.568 272.136 495.007C278.444 491.989 284.886 495.696 290.535 498.515L291.836 499.156C294.369 500.387 299.639 502.752 300.854 499.385C302.03 496.128 298.313 492.647 295.913 491.182C293.052 489.434 289.721 488.499 286.487 487.72C284.641 487.274 282.772 486.911 280.892 486.646C278.759 486.346 276.557 486.391 274.503 485.698C273.483 485.355 273.326 483.731 274.503 483.463C277.664 482.743 281.437 483.529 284.735 484.332L286.459 484.757C289.782 485.574 293.137 486.599 296.164 488.228C298.365 489.413 300.688 491.214 302.206 493.417C303.524 492.191 305.164 492.233 306.873 492.687L307.8 492.946C309.332 493.371 310.573 493.663 312.063 493.369C312.262 492.283 312.464 491.197 312.68 490.111C314.804 479.433 317.132 468.797 319.702 458.217C324.134 439.968 329.263 421.92 335.045 404.057L335.625 402.271C336.959 398.185 338.032 393.734 340.182 389.98C342.215 386.431 345.473 384.386 349.344 383.304C353.736 382.075 358.352 381.432 362.832 380.602C363.832 380.418 364.834 380.242 365.835 380.06C364.989 378.531 364.358 376.796 363.79 375.464L363.69 375.233C362.469 372.444 361.372 369.605 360.312 366.751L359.52 364.606C357.607 359.439 355.633 354.357 352.944 349.524C350.113 344.439 346.357 340.281 341.676 336.84C332.131 329.823 320.627 326.243 311.37 318.744C310.99 318.437 311.477 317.912 311.862 318.106C318.112 321.252 324.861 323.391 331.362 325.952L332.645 326.459C337.784 328.5 343.003 330.721 347.451 334.024C352.41 337.708 356.315 342.283 359.251 347.723C362.144 353.085 363.994 359.088 366.036 364.816L366.582 366.342C367.405 368.63 368.255 370.912 369.23 373.139C370.003 374.907 371.447 376.926 372.103 378.945C373.898 378.634 375.693 378.321 377.49 378.02C416.411 371.512 455.767 367.687 495.211 366.569C496.754 366.525 497.552 368 497.325 369.348C493.539 391.767 490.176 414.262 486.485 436.698C484.874 446.49 483.23 456.274 481.549 466.054C480.697 471.009 479.712 475.944 478.905 480.906C478.254 484.914 477.781 488.952 476.662 492.867C475.659 496.377 474.12 499.761 471.592 502.439C468.867 505.325 465.064 506.723 461.235 507.383C451.516 509.058 441.547 509.742 431.749 510.858L379.583 516.803C380.346 523.743 380.403 530.575 380.053 537.595L379.854 541.428C379.691 544.511 379.496 547.598 379.054 550.649C378.499 554.477 376.751 557.718 374.177 560.576C371.812 563.202 368.94 565.442 366.146 567.588C363.246 569.817 360.249 571.968 356.84 573.346L356.397 573.522C353.406 574.692 347.794 576.503 343.706 575.841C344.24 578.523 345.274 581.407 344.357 584.061C343.932 585.294 342.323 585.908 341.337 584.86C339.385 582.782 339.232 580.037 338.769 577.325C338.288 574.504 337.873 571.673 337.505 568.834C336.792 563.346 336.237 557.808 336.068 552.274C335.894 546.59 335.961 540.899 336.267 535.222C336.424 532.306 336.619 529.392 336.988 526.496C337.146 525.26 337.307 524.024 337.491 522.791C337.558 522.342 337.633 521.895 337.713 521.448L333.031 521.978C325.851 522.78 318.668 523.505 311.438 523.618C310.582 523.631 309.923 523.24 309.493 522.672C309.034 523.42 308.236 523.955 307.092 523.951C296.995 523.913 287.592 520.606 278.409 516.709C273.78 514.744 269.223 512.617 264.587 510.669C260.26 508.85 255.634 507.553 251.411 505.504L240.315 511.334C240.234 511.621 240.13 511.892 240.019 512.118C239.296 513.596 237.872 514.397 236.417 515C235.021 515.581 233.575 515.761 232.166 515.614C223.751 520.031 215.333 524.444 206.911 528.846L198.486 533.245C181.701 541.998 164.982 550.895 148.091 559.443L146.847 560.07C141.013 563 134.749 565.97 128.274 568.187C128.159 569.828 128.232 571.425 128.369 573.162L128.402 573.54C128.595 575.593 129.009 578.166 127.365 579.627C126.509 580.387 124.981 580.391 124.4 579.244C123.344 577.166 124.292 573.89 124.626 571.632C124.745 570.829 124.889 570.003 125.103 569.203C117.681 571.416 110.034 572.489 102.48 571.246C95.1264 570.037 89.4307 565.397 84.839 559.721C79.9931 553.732 76.5495 546.752 74.7019 539.269C72.5992 530.755 72.4619 521.962 72.5113 513.241C72.5637 503.954 72.9067 494.621 74.0345 485.396C72.7989 485.105 71.4286 484.853 70.1799 484.94C69.5615 485.931 68.3618 486.349 67.2777 486.22C64.9204 488.824 70.8997 491.485 72.8106 492.152C73.4741 492.383 73.4031 493.462 72.6378 493.43L72.1557 493.407C69.2031 493.25 66.1527 492.745 64.4167 489.997C63.0256 487.794 63.4435 485.184 65.1019 483.388C66.1972 473.015 68.8157 462.914 71.2527 452.796C73.6443 442.864 76.304 432.996 79.123 423.178L80.3868 418.784C84.8253 403.389 89.4647 387.87 95.5872 373.088C98.6445 365.706 102.166 358.461 106.94 352.024C111.391 346.025 116.644 340.891 122.684 336.506C133.942 328.331 147.153 323.391 160.133 318.685L160.714 318.475C167.44 316.038 174.15 313.572 180.8 310.931C186.681 308.596 192.315 305.635 198.168 303.265C197.978 302.919 197.795 302.57 197.618 302.216L197.51 302.307C197.491 302.322 197.472 302.336 197.452 302.35C196.864 302.758 195.997 302.558 195.512 302.099C194.143 300.805 194.606 299.368 195.52 298.025L195.64 297.854C196.758 296.285 197.755 294.627 198.787 293.001L199.434 291.984C201.166 289.268 202.986 286.533 205.296 284.289C206.366 283.248 207.537 282.47 208.778 281.89C208.672 281.665 209.602 281.206 209.866 281.437C213.797 279.996 218.32 280.298 222.606 280.695M377.059 517.09L371.594 517.712C365.58 518.398 359.565 519.06 353.549 519.716L340.481 521.139C340.448 521.885 340.357 522.614 340.341 523.178C340.255 526.083 340.192 528.989 340.132 531.895C340.011 537.72 340.143 543.551 340.526 549.365C340.897 554.998 341.386 560.632 342.145 566.227L342.301 567.346L342.391 567.934C343.011 567.994 343.62 568.289 344.126 568.895C345.231 570.216 349.234 568.932 350.797 568.375C353.367 567.458 355.788 565.911 358.021 564.359C360.202 562.843 362.166 561.076 364.054 559.214L365.598 557.685C367.134 556.156 368.672 554.527 369.613 552.604C370.889 549.996 371.054 546.794 371.429 543.954C371.889 540.46 372.438 536.967 373.018 533.49M218.391 480.416L217.825 480.565C197.23 486.046 176.667 491.689 156.009 496.928C145.786 499.521 135.515 501.926 125.28 504.469L123.622 504.884C115.548 506.928 107.376 509.388 101.193 515.254C100.965 515.47 100.633 515.139 100.848 514.909C107.512 507.804 116.99 504.796 126.09 502.188C127.773 501.706 129.457 501.236 131.139 500.756C118.763 496.337 106.192 492.493 93.3299 489.751C90.018 489.044 86.6676 488.526 83.3583 487.817C81.0503 487.322 78.7964 486.608 76.5129 486.014L74.7166 485.562L74.6928 491.248C74.6629 499.301 74.6772 507.348 75.0874 515.4L75.165 516.892C75.6436 525.853 76.3907 535 79.5656 543.449C82.1456 550.315 86.2579 556.783 91.6356 561.784C94.3568 564.315 97.2824 566.285 100.899 567.257C104.257 568.16 107.775 568.266 111.226 568.025C127.783 566.868 142.522 557.859 156.904 550.401C180.429 538.201 203.956 526.008 227.504 513.855C226.868 513.419 226.268 512.917 225.723 512.353C222.565 509.086 220.9 504.615 219.806 500.284C218.641 495.675 217.945 490.734 217.864 485.976M248.355 518.565C248.562 518.453 248.803 518.593 248.813 518.828C248.886 520.629 247.892 522.406 247.149 524.029L247.07 524.202C246.168 526.212 245.18 528.196 244.159 530.148C242.117 534.048 239.994 537.906 237.78 541.71C233.326 549.363 228.376 556.693 222.526 563.356C221.204 564.861 219.031 562.931 219.879 561.311C223.968 553.498 228.734 546.122 233.64 538.809C236.096 535.148 238.551 531.483 241.031 527.839C242.066 526.318 243.114 524.802 244.19 523.31L244.839 522.418M492.603 371.043C471.936 371.668 451.295 373.018 430.727 375.134C411.598 377.101 392.54 379.72 373.59 382.984C369.632 383.666 365.678 384.376 361.73 385.114L359.362 385.56C355.413 386.309 350.588 386.619 347.072 388.732C343.366 390.959 342.364 395.615 341.13 399.454C339.68 403.969 338.267 408.496 336.892 413.035C331.432 431.056 326.444 449.233 321.994 467.531C319.785 476.613 317.825 485.746 315.76 494.861C313.926 502.96 311.901 510.967 309.787 518.985C310.047 518.782 310.367 518.628 310.753 518.545C321.254 516.307 331.974 515.334 342.633 514.098L343.664 513.978C354.691 512.679 365.717 511.39 376.75 510.147L449.796 501.92C454.104 501.435 458.719 501.369 462.911 500.211C470.039 498.241 471.71 490.26 472.906 483.903L472.942 483.711C476.547 464.506 479.417 445.134 482.78 425.88M311.486 496.66C308.651 496.472 304.769 493.871 302.617 494.057C303.747 495.955 304.257 498.121 303.606 500.433C301.794 506.867 293.601 503.538 289.655 501.572C286.419 499.96 283.295 497.987 279.713 497.232C275.654 496.377 272.905 497.993 269.477 499.857C266.661 501.387 263.594 502.485 260.44 503.054C258.763 503.357 257.17 503.389 255.58 503.271C255.485 503.349 255.377 503.421 255.254 503.486L254.413 503.928C258.216 504.102 262.089 505.278 265.629 506.354C269.296 507.469 272.897 508.813 276.478 510.187L280.001 511.544C288.691 514.877 297.687 518.042 307.092 518.014C307.768 518.012 308.322 518.2 308.758 518.506M295.62 476.5C298.421 476.156 301.007 476.524 303.246 478.351C305.946 480.554 307.76 484.207 311.641 484.447C312.773 484.517 313.036 486.111 311.911 486.444C309.022 487.3 306.683 485.735 304.714 483.702L303.391 482.317C301.445 480.3 299.651 478.74 296.351 478.861C292.816 478.99 289.275 479.808 285.763 480.224C281.784 480.695 277.807 481.097 273.816 481.443C273.63 481.46 273.599 481.167 273.772 481.124L278.242 480.01M292.915 465.027L293.377 464.981C297.446 464.585 301.166 464.57 304.8 466.762L305.497 467.184C308.773 469.179 312.338 471.528 314.387 474.757C314.722 475.286 314.168 475.907 313.607 475.773C309.67 474.826 306.792 471.933 303.481 469.767C299.765 467.337 295.926 467.738 291.689 468.116C287.587 468.481 283.487 468.984 279.425 469.669C275.608 470.311 271.779 471.327 267.923 471.65L267.924 471.642C267.484 471.641 267.232 470.979 267.682 470.754C271.594 468.798 276.126 467.871 280.382 466.977M153.604 354.223C153.598 353.901 154.051 353.78 154.209 354.059C156.856 358.724 158.24 364.441 159.65 369.581C161.127 374.964 162.319 380.402 163.39 385.88C165.56 396.972 166.716 408.001 166.794 419.306C166.805 420.92 164.18 421.35 163.923 419.696C162.218 408.699 160.584 397.691 158.866 386.697C158.001 381.167 156.995 375.659 156.033 370.146M179.81 362.348C179.615 361.704 180.549 361.489 180.788 362.078C186.101 375.139 187.9 389.94 184.489 403.72C183.967 405.827 180.885 404.914 181.279 402.833M248.333 350.742C248.307 350.261 248.931 350.185 249.166 350.516C251.683 354.069 252.727 358.826 257.143 360.662C259.348 361.578 261.83 361.419 263.778 362.967C265.08 364.002 266.079 365.637 265.101 367.205C264.786 367.712 263.903 367.965 263.475 367.415C262.851 366.613 262.52 365.652 261.672 365.051C260.475 364.203 258.862 364.151 257.489 363.752C255.715 363.237 254.15 362.335 252.869 360.995M290.386 291.494C290.646 291.361 290.895 291.446 291.061 291.671C291.298 291.991 291.269 292.302 290.978 292.522C291.366 293.315 291.824 295.303 291.889 295.592C292.154 296.765 292.436 297.931 292.731 299.096C293.326 301.446 293.848 303.814 294.443 306.165C295.075 308.656 295.827 311.122 296.664 313.551C296.718 313.709 296.778 313.869 296.84 314.032L296.935 314.278L296.959 314.241C297.129 313.972 297.483 314.16 297.441 314.444C297.402 314.704 297.35 314.962 297.306 315.221L297.393 315.454C297.941 316.93 298.316 318.485 297.311 319.787C296.935 320.275 296.522 320.563 296.006 320.649C295.18 323.378 294.143 326.055 293.033 328.627L292.708 329.378C291.075 333.13 289.334 336.833 286.734 340.028C283.895 343.515 279.991 345.897 277.518 349.719C276.368 351.496 275.568 353.365 274.918 355.373L274.674 356.135C274.212 357.555 273.68 358.931 272.35 359.764C271.926 360.03 271.29 359.945 270.948 359.583C268.221 356.693 271.076 351.298 272.72 348.5C275.006 344.61 278.315 342.122 281.627 339.187C285.198 336.023 287.476 331.791 289.679 327.622C291.029 325.068 292.331 322.458 293.703 319.893C292.27 318.624 291.811 316.104 291.326 314.353L291.282 314.196C290.479 311.391 289.842 308.513 289.439 305.623C289.051 302.844 288.89 300.105 288.992 297.31L289.022 296.598M295.715 304.721C295.398 304.286 295.922 303.794 296.356 303.884C298.998 304.431 301.58 306.032 303.95 307.327L304.203 307.465C306.096 308.487 307.999 309.739 308.993 311.724C310.074 313.882 309.985 316.367 309.837 318.713L309.823 318.932C309.643 321.744 309.614 324.666 309.019 327.428C308.715 328.841 307.437 329.239 306.345 328.905C305.044 333.017 301.392 336.047 298.724 339.291C295.323 343.428 295.963 349.013 296.318 353.995C296.462 356.012 293.957 356.586 292.667 355.51L289.694 353.036C289.198 352.623 288.704 352.209 288.211 351.794C287.788 351.438 287.37 351.079 286.955 350.716L286.335 350.168C286.06 349.921 284.846 348.564 284.492 348.508C283.633 348.371 281.591 350.639 280.893 351.35L280.804 351.439C279.489 352.73 278.301 354.12 277.195 355.593C276.991 355.864 276.593 355.639 276.739 355.327C277.73 353.199 278.883 351.165 280.252 349.262L280.529 348.883C281.44 347.653 282.662 345.483 284.27 345.119C286.233 344.676 288.193 346.648 289.621 347.742L289.712 347.811C290.391 348.322 291.063 348.841 291.734 349.364C291.663 345.655 292.131 341.907 294.043 338.711C295.391 336.456 297.411 334.787 299.14 332.849C301.064 330.692 302.069 328.041 303.811 325.794C304.035 325.505 304.344 325.349 304.679 325.3C304.746 323.494 305.012 321.67 305.217 319.883L305.277 319.348C305.484 317.407 305.974 315.036 305.025 313.218C304.129 311.501 302.072 310.289 300.549 309.124L299.306 308.158M209.998 284.194C209.203 284.655 208.46 285.228 207.785 285.944C205.663 288.2 204.145 291.006 202.668 293.706C201.873 295.16 201.107 296.63 200.305 298.081C199.956 298.712 199.598 299.336 199.235 299.96C199.067 300.247 198.569 300.818 198.323 301.169C198.597 301.554 198.88 301.933 199.17 302.308C199.28 302.451 206.894 310.759 209.548 314.011C213.613 318.991 217.245 324.251 220.351 329.882C223.392 335.396 225.708 341.234 228.525 346.855C229.935 349.669 231.51 352.463 233.517 354.898C233.595 354.993 233.677 355.083 233.756 355.176C234.522 353.103 236.485 350.884 237.45 349.609L237.54 349.489C239.726 346.537 242.036 343.673 244.395 340.858C246.55 338.288 248.76 335.773 251.023 333.3L251.875 332.374C253.452 330.668 255.455 328.115 257.763 326.896C257.516 326.455 257.23 326.018 256.9 325.587C254.738 322.756 251.68 320.701 248.663 318.848L246.707 317.656C239.332 313.154 232.072 308.444 225.67 302.596C222.282 299.501 218.942 296.259 216.095 292.65L215.088 291.374M222.303 281.966C218.85 282.256 215.12 282.187 211.929 283.314C214.766 286.001 217.463 288.901 220.233 291.633C220.48 289.786 220.984 287.961 221.411 286.159" fill=""></path> <path fill-rule="evenodd" clip-rule="evenodd" d="M268.828 111.141C293.419 111.141 318.855 130.233 327.869 142.416C335.448 152.659 339.529 198.977 339.529 230.279C339.529 236.826 343.136 249.167 342.083 255.429C338.226 278.376 321.421 297.621 288.159 297.621C254.898 297.621 231.05 284.416 206.328 248.961C194.332 248.961 188.519 239.748 188.435 225.208C188.35 210.667 200.013 205.377 200.013 205.377C200.013 205.377 195.855 147.996 206.328 133.057C216.801 118.117 244.236 111.141 268.828 111.141Z" fill="white"></path> <path fill-rule="evenodd" clip-rule="evenodd" d="M258.479 103.027C274.006 101.453 289.22 102.776 304.522 105.513C305.691 105.725 306.354 106.494 306.6 107.417C313.807 107.747 321.023 108.276 328.22 108.671C330.832 108.814 332.313 111.399 331.122 113.734C330.884 114.197 330.637 114.648 330.386 115.1L330.701 114.995C332.867 114.3 335.206 113.957 337.315 115.061C340.001 116.466 341.054 119.568 340.46 122.422C340.308 123.151 340.053 123.849 339.763 124.531C340.352 124.492 340.945 124.505 341.534 124.583C344.67 124.999 347 127.407 347.165 130.612C347.407 135.453 344.293 140.364 340.625 143.829C341.157 144.927 341.361 146.22 341.14 147.53C340.698 150.12 338.793 151.671 336.585 152.682C337.506 155.611 337.941 158.672 337.684 161.801C337.599 162.846 336.687 163.709 335.724 163.92C339.312 173.817 341.129 184.442 342.435 194.795C343.366 202.162 343.825 209.571 343.881 216.992C343.909 220.343 343.853 223.698 343.713 227.049L343.656 228.306C343.483 231.928 343.475 235.732 342.825 239.316C345.042 243.094 345.935 247.783 346.311 252.017C346.779 257.257 346.038 262.662 344.388 267.647C338.16 286.481 319.364 298.367 300.485 301.456C283.01 304.315 262.788 300.467 252.576 284.568C252.416 284.317 252.758 284.109 252.957 284.274C260.263 290.225 268.739 292.88 277.947 294.172C293.867 296.402 311.763 292.619 324.539 282.591C330.672 277.776 335.094 270.765 337.039 263.221C338.03 259.365 338.373 255.344 337.982 251.375C337.584 247.35 335.804 243.914 334.683 240.11C334.306 238.825 334.704 237.632 335.488 236.782C335.709 233.693 336.229 230.579 336.428 227.499C336.648 223.998 336.783 220.497 336.831 216.992C336.922 209.722 336.619 202.439 336.008 195.199C334.891 181.942 331.924 169.007 330.183 155.863C329.538 156.442 328.614 156.68 327.646 156.174L327.545 156.119L327.017 155.816C326.986 155.816 326.952 155.82 326.921 155.824C323.305 156.176 319.555 155.672 316.09 154.592C312.464 153.464 309.1 151.729 306.093 149.417C305.522 152.319 305.283 155.251 305.28 158.21C305.275 160.058 303.322 161.017 301.771 160.227C294.898 156.73 288.332 152.701 282.1 148.172C281.372 151.907 280.645 155.642 279.913 159.381C279.631 160.821 277.799 161.403 276.625 160.717C271.957 157.997 267.925 154.436 264.642 150.202C263.987 151.457 263.329 152.712 262.667 153.965L261.671 155.841C260.688 157.685 259.371 159.724 257.219 160.313C254.941 160.938 253.039 159.459 252.273 157.394C252.039 156.752 251.822 156.093 251.623 155.429C249.682 159.867 247.491 164.205 245.014 168.343C241.298 174.55 236.837 180.081 232.389 185.755C231.038 187.478 228.725 185.833 228.539 184.159C228.431 183.175 228.34 182.186 228.261 181.2C225.67 186.439 222.965 191.628 220.019 196.667L220.441 198.323V198.323C221.656 203.215 222.666 208.142 223.763 213.061C224.118 214.647 223.276 216.916 221.425 217.186C219.213 217.509 217.121 218.641 214.856 217.862C212.386 217.013 211.898 214.875 210.732 212.848C210.499 212.444 210.229 212.073 209.938 211.721L209.864 211.817V211.817C209.682 212.056 209.249 211.796 209.357 211.523L209.484 211.207V211.207C208.482 210.142 207.283 209.254 206.181 208.298C203.562 207.856 200.615 208.34 198.811 209.406C194.7 211.835 192.813 216.841 192.774 221.444C192.726 226.831 194.393 232.887 197.208 237.494C198.447 239.52 200.145 241.35 202.388 242.248C204.614 243.141 207.027 242.864 209.292 243.705C210.79 244.265 211.713 245.931 210.808 247.44C210.747 247.545 210.678 247.64 210.612 247.74L211.286 248.635C211.75 249.256 212.233 249.92 212.683 250.611C213.835 251.939 215.048 253.219 216.222 254.524C218.391 256.931 220.496 259.405 222.631 261.846C224.645 264.15 226.776 266.314 228.972 268.444C231.046 270.462 233.636 272.158 235.542 274.31C237.395 276.409 237.898 280.074 234.849 281.289C231.475 282.637 228.489 279.479 226.218 277.373L226.122 277.285C221.959 273.448 218.2 269.063 215.215 264.236C212.257 266.252 207.98 266.445 205.035 264.429C203.486 263.368 202.297 261.586 201.719 259.647C201.174 259.769 200.63 259.84 200.099 259.832C199.826 259.991 199.552 260.145 199.274 260.289C197.078 261.434 194.38 260.923 193.376 258.489C192.461 256.279 193.403 253.77 194.228 251.641L194.398 251.201C194.865 249.987 195.381 248.664 196.022 247.419C194.237 246.074 192.712 244.404 191.422 242.504C187.087 236.106 184.921 226.748 185.879 219.114C186.455 214.507 188.615 209.736 192.154 206.629L192.024 206.291V206.291C191.032 203.771 190.131 201.242 189.547 198.579C188.863 195.464 188.529 192.237 188.226 189.066C187.585 182.368 187.758 175.518 188.611 168.847C190.214 156.288 194.276 143.96 201.487 133.51C199.443 131.059 197.823 128.174 198.668 124.856C199.053 123.333 199.932 121.889 201.258 121.016C201.989 120.535 202.86 120.462 203.592 120.063L203.812 119.941C204.134 119.753 203.888 119.773 203.696 118.9C202.938 115.412 203.566 112.042 207.399 110.884C211.007 109.795 214.42 112.107 216.555 114.861C222.142 110.892 229.505 108.814 235.979 107.049C243.342 105.049 250.895 103.8 258.479 103.027ZM198.131 220.02C198.105 217.179 200.794 215.427 203.441 215.891C205.218 216.201 206.701 217.263 208.093 218.361L208.771 218.899C210.467 220.232 212.413 221.669 213.423 223.556C214.905 226.341 211.774 230.089 208.85 228.137C206.845 226.791 205.56 224.634 204.244 222.63L204.108 222.424C203.51 221.526 202.986 220.571 202.167 219.851L201.99 219.696C201.721 219.466 201.432 219.257 201.084 219.157C200.414 218.964 199.172 219.235 198.876 220.034L198.85 220.116C198.741 220.52 198.135 220.433 198.131 220.02Z" fill=""></path> <path fill-rule="evenodd" clip-rule="evenodd" d="M295.136 265.104C292.225 263.914 289.627 261.93 287.728 259.395C287.068 258.514 286.897 257.584 287.035 256.732C287.191 255.775 287.756 254.908 288.527 254.326C289.3 253.743 290.268 253.455 291.203 253.602C292.016 253.729 292.824 254.175 293.465 255.099L293.598 255.284C294.728 256.814 296.199 258.069 297.875 258.878C299.491 259.658 301.298 260.022 303.168 259.81C306.73 259.407 309.185 257.478 311.794 254.858C312.118 254.527 312.441 254.186 312.767 253.839C312.972 253.525 313.257 253.323 313.573 253.217C313.925 253.1 314.322 253.106 314.686 253.234C315.037 253.356 315.351 253.589 315.562 253.898C315.762 254.193 315.875 254.556 315.838 254.974C315.6 257.689 314.182 260.112 312.169 262.015C309.933 264.128 306.97 265.59 304.179 266.103C301.105 266.668 297.973 266.263 295.136 265.104V265.104ZM305.629 223.218C308.9 225.209 313.883 229.852 310.365 234.788C306.223 239.14 300.261 234.15 297.323 231.893C294.598 230.144 291.537 234.642 294.065 236.685C315.297 252.429 323.913 223.738 307.284 220.877C305.453 220.561 304.773 222.602 305.629 223.218ZM267.581 204.903C267.943 200.41 274.774 199.39 275.453 203.836C276.062 207.818 275.345 211.476 273.555 215.061C271.843 218.486 267.543 216.888 267.217 213.769C266.781 209.589 267.357 207.697 267.581 204.903ZM319.581 202.914C320.533 201.664 321.908 200.812 323.556 201.294C328.703 202.8 327.186 210.119 325.378 213.682C324.396 215.617 321.221 216.108 319.786 214.404C317.447 211.626 316.327 206.078 319.3 203.342C319.381 203.201 319.471 203.058 319.581 202.914ZM273.482 185.245L274.295 185.103C276.811 184.667 279.938 184.248 281.717 186.274C282.661 187.348 282.986 189.344 281.717 190.372C279.486 192.181 277.019 191.48 274.345 191.633C272.142 191.76 270.024 192.125 267.901 192.733C263.244 194.066 259.45 196.499 255.473 199.171C254.951 199.522 254.418 198.854 254.667 198.365C256.963 193.861 261.412 190.161 265.869 187.906C268.248 186.702 270.851 185.703 273.482 185.245ZM314.888 183.227L315.511 183.355C322.283 184.773 331.082 187.605 334.289 194.268C334.412 195.21 334.282 195.412 334.177 195.544L334.142 195.588C334.056 195.701 333.987 195.856 333.579 195.984C333.466 195.957 333.352 195.929 333.236 195.898C331.766 195.512 330.603 194.981 329.477 194.429L328.256 193.827C326.84 193.131 325.411 192.461 323.896 191.966C320.665 190.91 317.34 190.166 313.965 189.769C313.233 189.683 312.528 189.436 311.973 189.012C311.445 188.61 311.042 188.053 310.858 187.312C310.62 186.354 310.688 185.628 311.202 184.764C311.588 184.115 312.14 183.665 312.774 183.406C313.421 183.143 314.157 183.081 314.888 183.227Z" fill=""></path> <path fill-rule="evenodd" clip-rule="evenodd" d="M348.914 208.569C344.785 236.543 315.961 239.637 310.839 211.865C311.661 211.504 312.253 210.795 312.129 209.417C312.1 203.365 313.976 196.968 319.427 193.602C325.06 190.129 331.652 189.785 338.17 189.873C350.61 189.576 350.348 199.99 348.914 208.569M306.327 196.402C302.423 196.237 297.484 196.375 293.987 198.758C293.025 196.164 290.527 193.395 288.003 191.915C297.385 192.19 307.042 191.265 316.494 190.547C314.231 192.092 312.127 194.413 310.758 197.096C309.489 196.418 307.671 196.481 306.327 196.402M289.119 211.534C278.294 248.856 251.272 232.589 248.326 227.806C243.013 219.891 242.013 200.651 246.642 195.506C253.267 190.854 262.647 192.052 270.474 191.938C284.853 192.132 295.065 196.44 289.119 211.534M361.696 194.369C358.755 193.984 355.612 193.906 352.878 195.203C352.036 191.619 349.393 188.622 346.408 187.303C346.047 186.85 346.101 186.606 344.867 186.674C337.29 184.393 328.811 185.6 321.53 187.939C310.03 188.909 297.966 189.674 286.369 191.01C275.506 186.124 242.724 185.408 240.686 197.451C238.124 197.067 233.76 195.047 231.606 197.787C215.811 195.105 199.489 198.833 183.625 200.493C179.632 201.229 177.575 209.167 182.108 209.058C184.657 208.366 182.03 204.116 185.461 203.796C200.767 202.122 215.739 199.746 231.202 199.468C230.664 202.142 241.429 202.316 241.588 200.755C241.611 200.766 241.635 200.774 241.658 200.785C238.998 210.714 241.399 225.004 246.207 231.161C252.942 239.224 269.853 241.537 277.351 236.349C287.023 231.562 297.085 207.529 294.259 199.544C299.389 197.916 304.46 198.405 309.783 199.234C308.565 202.682 306.461 211.171 309.488 211.907C308.932 228.76 324.245 239.275 338.361 232.362C350.58 226.617 354.853 208.434 353.358 197.397C354.879 200.34 367.65 197.136 361.696 194.369" fill=""></path> </svg>