<svg fill="" xmlns="http://www.w3.org/2000/svg" viewBox="63.58 102.35 433.78 483.04"><path fill-rule="evenodd" clip-rule="evenodd" d="m486.752 368.45-18.554 1.824c-29.618 2.266-59.225 7-88.617 9.841-.732-1.193-2.165-.997-3.034-.168-2.933-.257-6.22-2.502-8.877-.167-.086-.012-.173-.026-.26-.035-4.73-9.093-8-18.792-11.173-28.504-2.026-5.971-4.751-11.752-9.787-15.761-8.594-5.975-28.286-18.092-38.378-17.583-.168-1.81-1.01-3.675-2.393-4.88 3.048-5.205-9.14-8.601-9.999-7.998.551-17.39-7.616-32.492-25.625-35.955-16.133-3.367-39.079-3.932-47.756 12.955-.954-.108-10.703-.159-11.647-.053-1.466-1.86-17.573 15.77-10.972 21.907-59.019 26.15-92.578 23.03-108.913 96.544-2.209 6.906-2.37 14.463-4.702 21.215-8.296 19.404-15.026 40.065-16.7 61.179-4.045 1.038-4.51 8.181.175 9.214 1.79.396 3.286.935 4.591 1.959-1.02 17.302 3.158 56.826 5.79 56.704 5.368 17.11 29.31 21.939 46.261 15.926-2.922 5.506 0 8.968 0 11.91 60.992 2.311 127.68.98 188.655 4.15 7.8-.111 16.004 1.919 23.697.751 4.692-1.127 4.699-8.516-.06-9.429l20.795-4.524c-.465-.176 8.571-6.196 15.401-17.445 6.357-12.584 2.03-27.775 4.911-41.463 22.497-1.843 45.366-2.631 67.616-6.447 3.034 9.092 16.167-1.782 20.342-6.156l-.016-.02c2.021-.553 3.641-2.45 3.695-4.695 1.417-2.028 1.714-4.886.355-6.845 6.228-35.991 15.721-72.738 19.153-109.067a7.685 7.685 0 0 0 3.324-1.622l-.079-.079c1.641-1.832 1.96-4.995-.775-6.552-2.207-1.257-4.05-.867-6.444-.631Z"/><path fill-rule="evenodd" clip-rule="evenodd" d="M223.423 278.097c1.838-4.626 8.05-2.828 7.357 2.032-.414 2.91-2.006 5.985-3.436 8.536-1.164 2.076-2.492 4.103-4.292 5.659a176.27 176.27 0 0 0 9.943 8.621 122.362 122.362 0 0 0 11.681 8.277c3.548 2.221 7.255 4.188 10.599 6.723 3.11 2.355 5.942 5.189 7.383 8.888 1.536 3.939.869 8.007-.262 11.943l-.13.445c-1.155 3.9-3.155 8.601-.382 12.275 1.412 1.871 3.464 3.195 5.235 4.691a40.665 40.665 0 0 1 4.409 4.327c2.956 3.384 5.36 7.192 6.877 11.436l.136.385c1.3 3.757 2.251 8.358.493 12.046-.504 1.057-2.13.714-2.412-.316-.638-2.332-.605-4.774-1.14-7.139-.557-2.459-1.484-4.794-2.695-7.003-2.342-4.273-5.514-7.923-9.261-11.009l-1.122-.914c-2.924-2.403-5.61-4.952-6.203-8.929-.635-4.255 1.067-8.309 2.162-12.336.762-2.807 1.011-5.497.187-8.033-1.007 1.646-2.381 3.208-3.467 4.602-2.164 2.777-4.349 5.537-6.528 8.302-2.234 2.835-4.413 5.715-6.488 8.669a495.161 495.161 0 0 0-2.761 3.983c-.688 1-1.648 1.999-2.398 3.02.182.545.168 1.174-.162 1.621-3.978 5.383-9.638-5.849-11.114-8.687-3.005-5.779-5.242-11.919-8.258-17.697-3.125-5.99-6.683-11.82-10.649-17.289-2.399-3.307-5.088-6.414-7.282-9.827-5.17 4.696-11.973 7.843-18.222 10.698-6.865 3.135-13.998 5.697-21.037 8.417l-2.08.809c-12.129 4.741-24.554 9.95-34.635 18.371-11.847 9.896-18.855 23.689-24.073 37.972-6.006 16.443-10.975 33.329-15.607 50.205a909.288 909.288 0 0 0-6.734 26.009c-1.863 7.666-3.407 15.409-5.564 22.996 4.374-.155 9.363 1.541 13.098 2.031 17.02 2.231 33.811 5.788 49.881 11.947 1.984.761 2.559 2.746 2.126 4.355 1.145-.323 2.289-.651 3.434-.973-1.254-1.925-.656-5.366-.557-7.499l.006-.147c.101-2.842.409-5.688.609-8.525a313.83 313.83 0 0 1 1.533-16.156l.168-1.345c.746-5.851 1.297-11.736 2.111-17.577l.096-.669a80.14 80.14 0 0 0-1.321-4.44c-1.271-3.915-3.065-7.6-4.636-11.392-.186-.446.449-.703.746-.435 2.662 2.399 4.776 5.441 6.475 8.623.029-.15.055-.3.086-.45l.194-.956c.478-2.33 1.059-4.782 2.486-6.672.152-.201.453-.243.597 0 1.366 2.315 1.519 5.247 1.729 7.881.237 2.981.267 5.998.225 8.987-.082 5.84-.493 11.697-.82 17.527-.321 5.73-.952 11.387-1.765 17.06l-.154 1.064c-.398 2.7-.723 5.434-1.247 8.116l-.148.73c-.281 1.33-.453 3.205-1.011 4.763a3977.068 3977.068 0 0 1 43.128-11.776c10.408-2.783 20.828-5.523 31.243-8.281a11.692 11.692 0 0 1 2.088-2.747c2.814-2.73 6.543-3.947 9.963-1.846.278.171.301.607 0 .773-.655.358-1.312.726-1.957 1.11l6.254-1.697c4.675-1.269 9.405-2.854 14.189-3.739 8.813-4.355 18.29-7.508 27.574-10.624l1.093-.371c4.754-1.623 9.67-3.44 14.581-4.34 3.595-.658 7.815.137 9.261 3.826 1.83 1.208 3.552 2.627 5.214 4.024 1.201 1.009 2.353 2.082 3.524 3.126l.216.19c.957.832 1.716 1.389 1.951 2.714.121.684-.313 1.608-1.155 1.518-2.578-.277-4.673-3.269-6.421-5.056-1.351-1.381-2.712-2.809-3.945-4.327-.718.392-1.703.322-2.16-.546-2.372-4.498-8.869-1.381-12.464-.314l-5.149 1.526c-2.575.765-5.148 1.533-7.718 2.314-7.061 2.148-14.087 4.552-21.213 6.524.638.702.55 1.951-.661 2.426-5.578 2.191-11.696 3.325-17.491 4.829-3.658.95-7.314 1.906-10.969 2.868a8.991 8.991 0 0 0-1.268 3.506c-.697 4.924.648 10.605 1.958 15.367l.198.711c1.077 3.829 2.662 8.522 5.96 10.94.805.589 1.83 1 2.863 1.092 6.457-3.328 12.912-6.656 19.372-9.978 1.197-.616 2.302.218 2.571 1.209a42.177 42.177 0 0 0 6.62-1.668c3.478-1.183 6.193-3.439 9.454-5 6.308-3.018 12.75.689 18.399 3.508l1.301.641c2.533 1.231 7.803 3.596 9.018.229 1.176-3.257-2.541-6.738-4.941-8.203-2.861-1.748-6.192-2.683-9.426-3.462a58.782 58.782 0 0 0-5.595-1.074c-2.133-.3-4.335-.255-6.389-.948-1.02-.343-1.177-1.967 0-2.235 3.161-.72 6.934.066 10.232.869l1.724.425c3.323.817 6.678 1.842 9.705 3.471 2.201 1.185 4.524 2.986 6.042 5.189 1.318-1.226 2.958-1.184 4.667-.73l.927.259c1.532.425 2.773.717 4.263.423.199-1.086.401-2.172.617-3.258a778.625 778.625 0 0 1 7.022-31.894 752.518 752.518 0 0 1 15.343-54.16l.58-1.786c1.334-4.086 2.407-8.537 4.557-12.291 2.033-3.549 5.291-5.594 9.162-6.676 4.392-1.229 9.008-1.872 13.488-2.702 1-.184 2.002-.36 3.003-.542-.846-1.529-1.477-3.264-2.045-4.596l-.1-.231c-1.221-2.789-2.318-5.628-3.378-8.482l-.792-2.145c-1.913-5.167-3.887-10.249-6.576-15.082-2.831-5.085-6.587-9.243-11.268-12.684-9.545-7.017-21.049-10.597-30.306-18.096-.38-.307.107-.832.492-.638 6.25 3.146 12.999 5.285 19.5 7.846l1.283.507c5.139 2.041 10.358 4.262 14.806 7.565 4.959 3.684 8.864 8.259 11.8 13.699 2.893 5.362 4.743 11.365 6.785 17.093l.546 1.526c.823 2.288 1.673 4.57 2.648 6.797.773 1.768 2.217 3.787 2.873 5.806 1.795-.311 3.59-.624 5.387-.925a862.114 862.114 0 0 1 117.721-11.451c1.543-.044 2.341 1.431 2.114 2.779-3.786 22.419-7.149 44.914-10.84 67.35a4159.073 4159.073 0 0 1-4.936 29.356c-.852 4.955-1.837 9.89-2.644 14.852-.651 4.008-1.124 8.046-2.243 11.961-1.003 3.51-2.542 6.894-5.07 9.572-2.725 2.886-6.528 4.284-10.357 4.944-9.719 1.675-19.688 2.359-29.486 3.475l-52.166 5.945c.763 6.94.82 13.772.47 20.792l-.199 3.833c-.163 3.083-.358 6.17-.8 9.221-.555 3.828-2.303 7.069-4.877 9.927-2.365 2.626-5.237 4.866-8.031 7.012-2.9 2.229-5.897 4.38-9.306 5.758l-.443.176c-2.991 1.17-8.603 2.981-12.691 2.319.534 2.682 1.568 5.566.651 8.22-.425 1.233-2.034 1.847-3.02.799-1.952-2.078-2.105-4.823-2.568-7.535a214.715 214.715 0 0 1-1.264-8.491c-.713-5.488-1.268-11.026-1.437-16.56a202.021 202.021 0 0 1 .199-17.052c.157-2.916.352-5.83.721-8.726.158-1.236.319-2.472.503-3.705.067-.449.142-.896.222-1.343l-4.682.53c-7.18.802-14.363 1.527-21.593 1.64a2.329 2.329 0 0 1-1.945-.946c-.459.748-1.257 1.283-2.401 1.279-10.097-.038-19.5-3.345-28.683-7.242-4.629-1.965-9.186-4.092-13.822-6.04-4.327-1.819-8.953-3.116-13.176-5.165l-11.096 5.83a4.72 4.72 0 0 1-.296.784c-.723 1.478-2.147 2.279-3.602 2.882a8.646 8.646 0 0 1-4.251.614c-8.415 4.417-16.833 8.83-25.255 13.232l-8.425 4.399c-16.785 8.753-33.504 17.65-50.395 26.198l-1.244.627c-5.834 2.93-12.098 5.9-18.573 8.117-.115 1.641-.042 3.238.095 4.975l.033.378c.193 2.053.607 4.626-1.037 6.087-.856.76-2.384.764-2.965-.383-1.056-2.078-.108-5.354.226-7.612.119-.803.263-1.629.477-2.429-7.422 2.213-15.069 3.286-22.623 2.043-7.354-1.209-13.05-5.849-17.641-11.525a52.475 52.475 0 0 1-10.137-20.452c-2.103-8.514-2.24-17.307-2.19-26.028.052-9.287.395-18.62 1.522-27.845-1.235-.291-2.605-.543-3.854-.456-.619.991-1.818 1.409-2.902 1.28-2.358 2.604 3.622 5.265 5.533 5.932.663.231.592 1.31-.173 1.278l-.482-.023c-2.953-.157-6.003-.662-7.74-3.41-1.39-2.203-.972-4.813.686-6.609 1.095-10.373 3.714-20.474 6.15-30.592 2.392-9.932 5.052-19.8 7.871-29.618l1.264-4.394c4.438-15.395 9.078-30.914 15.2-45.696 3.057-7.382 6.579-14.627 11.353-21.064 4.451-5.999 9.704-11.133 15.744-15.518 11.258-8.175 24.469-13.115 37.449-17.821l.581-.21c6.726-2.437 13.436-4.903 20.086-7.544 5.881-2.335 11.515-5.296 17.368-7.666-.19-.346-.373-.695-.55-1.049l-.108.091a1.242 1.242 0 0 1-.058.043c-.588.408-1.455.208-1.94-.251-1.369-1.294-.906-2.731.008-4.074l.12-.171c1.118-1.569 2.115-3.227 3.147-4.853l.647-1.017c1.732-2.716 3.552-5.451 5.862-7.695a12.588 12.588 0 0 1 3.482-2.399c-.106-.225.824-.684 1.088-.453 3.931-1.441 8.454-1.139 12.74-.742M377.059 517.09l-5.465.622c-6.014.686-12.029 1.348-18.045 2.004l-13.068 1.423c-.033.746-.124 1.475-.14 2.039a974.127 974.127 0 0 0-.209 8.717c-.121 5.825.011 11.656.394 17.47.371 5.633.86 11.267 1.619 16.862l.156 1.119.09.588c.62.06 1.229.355 1.735.961 1.105 1.321 5.108.037 6.671-.52 2.57-.917 4.991-2.464 7.224-4.016 2.181-1.516 4.145-3.283 6.033-5.145l1.544-1.529c1.536-1.529 3.074-3.158 4.015-5.081 1.276-2.608 1.441-5.81 1.816-8.65.46-3.494 1.009-6.987 1.589-10.464m-154.627-53.074-.566.149c-20.595 5.481-41.158 11.124-61.816 16.363-10.223 2.593-20.494 4.998-30.729 7.541l-1.658.415c-8.074 2.044-16.246 4.504-22.429 10.37-.228.216-.56-.115-.345-.345 6.664-7.105 16.142-10.113 25.242-12.721 1.683-.482 3.367-.952 5.049-1.432-12.376-4.419-24.947-8.263-37.81-11.005-3.311-.707-6.661-1.225-9.97-1.934-2.309-.495-4.563-1.209-6.846-1.803l-1.796-.452-.024 5.686c-.03 8.053-.016 16.1.394 24.152l.078 1.492c.479 8.961 1.226 18.108 4.4 26.557 2.58 6.866 6.693 13.334 12.07 18.335 2.722 2.531 5.647 4.501 9.264 5.473 3.358.903 6.876 1.009 10.327.768 16.557-1.157 31.296-10.166 45.678-17.624 23.525-12.2 47.052-24.393 70.6-36.546a11.59 11.59 0 0 1-1.781-1.502c-3.158-3.267-4.823-7.738-5.917-12.069-1.165-4.609-1.861-9.55-1.942-14.308m30.491 32.589a.308.308 0 0 1 .458.263c.073 1.801-.921 3.578-1.664 5.201l-.079.173c-.902 2.01-1.89 3.994-2.911 5.946a295.12 295.12 0 0 1-6.379 11.562c-4.454 7.653-9.404 14.983-15.254 21.646-1.322 1.505-3.495-.425-2.647-2.045 4.089-7.813 8.855-15.189 13.761-22.502 2.456-3.661 4.911-7.326 7.391-10.97a202.4 202.4 0 0 1 3.159-4.529l.649-.892m247.764-151.375a858.077 858.077 0 0 0-61.876 4.091 847.079 847.079 0 0 0-68.997 9.98l-2.368.446c-3.949.749-8.774 1.059-12.29 3.172-3.706 2.227-4.708 6.883-5.942 10.722a856.813 856.813 0 0 0-4.238 13.581c-5.46 18.021-10.448 36.198-14.898 54.496-2.209 9.082-4.169 18.215-6.234 27.33-1.834 8.099-3.859 16.106-5.973 24.124.26-.203.58-.357.966-.44 10.501-2.238 21.221-3.211 31.88-4.447l1.031-.12a6566.005 6566.005 0 0 1 33.086-3.831l73.046-8.227c4.308-.485 8.923-.551 13.115-1.709 7.128-1.97 8.799-9.951 9.995-16.308l.036-.192c3.605-19.205 6.475-38.577 9.838-57.831m-171.294 70.78c-2.835-.188-6.717-2.789-8.869-2.603 1.13 1.898 1.64 4.064.989 6.376-1.812 6.434-10.005 3.105-13.951 1.139-3.236-1.612-6.36-3.585-9.942-4.34-4.059-.855-6.808.761-10.236 2.625a30.258 30.258 0 0 1-9.037 3.197c-1.677.303-3.27.335-4.86.217-.095.078-.203.15-.326.215l-.841.442c3.803.174 7.676 1.35 11.216 2.426 3.667 1.115 7.268 2.459 10.849 3.833l3.523 1.357c8.69 3.333 17.686 6.498 27.091 6.47.676-.002 1.23.186 1.666.492M295.62 476.5c2.801-.344 5.387.024 7.626 1.851 2.7 2.203 4.514 5.856 8.395 6.096 1.132.07 1.395 1.664.27 1.997-2.889.856-5.228-.709-7.197-2.742l-1.323-1.385c-1.946-2.017-3.74-3.577-7.04-3.456-3.535.129-7.076.947-10.588 1.363-3.979.471-7.956.873-11.947 1.219-.186.017-.217-.276-.044-.319l4.47-1.114m14.673-14.983.462-.046c4.069-.396 7.789-.411 11.423 1.781l.697.422c3.276 1.995 6.841 4.344 8.89 7.573.335.529-.219 1.15-.78 1.016-3.937-.947-6.815-3.84-10.126-6.006-3.716-2.43-7.555-2.029-11.792-1.651-4.102.365-8.202.868-12.264 1.553-3.817.642-7.646 1.658-11.502 1.981l.001-.008c-.44-.001-.692-.663-.242-.888 3.912-1.956 8.444-2.883 12.7-3.777M153.604 354.223c-.006-.322.447-.443.605-.164 2.647 4.665 4.031 10.382 5.441 15.522 1.477 5.383 2.669 10.821 3.74 16.299 2.17 11.092 3.326 22.121 3.404 33.426.011 1.614-2.614 2.044-2.871.39-1.705-10.997-3.339-22.005-5.057-32.999-.865-5.53-1.871-11.038-2.833-16.551m23.777-7.798c-.195-.644.739-.859.978-.27 5.313 13.061 7.112 27.862 3.701 41.642-.522 2.107-3.604 1.194-3.21-.887m67.054-52.091c-.026-.481.598-.557.833-.226 2.517 3.553 3.561 8.31 7.977 10.146 2.205.916 4.687.757 6.635 2.305 1.302 1.035 2.301 2.67 1.323 4.238-.315.507-1.198.76-1.626.21-.624-.802-.955-1.763-1.803-2.364-1.197-.848-2.81-.9-4.183-1.299-1.774-.515-3.339-1.417-4.62-2.757m37.517-69.501c.26-.133.509-.048.675.177.237.32.208.631-.083.851.388.793.846 2.781.911 3.07.265 1.173.547 2.339.842 3.504.595 2.35 1.117 4.718 1.712 7.069a92.624 92.624 0 0 0 2.221 7.386c.054.158.114.318.176.481l.095.246.024-.037c.17-.269.524-.081.482.203-.039.26-.091.518-.135.777l.087.233c.548 1.476.923 3.031-.082 4.333-.376.488-.789.776-1.305.862-.826 2.729-1.863 5.406-2.973 7.978l-.325.751c-1.633 3.752-3.374 7.455-5.974 10.65-2.839 3.487-6.743 5.869-9.216 9.691-1.15 1.777-1.95 3.646-2.6 5.654l-.244.762c-.462 1.42-.994 2.796-2.324 3.629-.424.266-1.06.181-1.402-.181-2.727-2.89.128-8.285 1.772-11.083 2.286-3.89 5.595-6.378 8.907-9.313 3.571-3.164 5.849-7.396 8.052-11.565 1.35-2.554 2.652-5.164 4.024-7.729-1.433-1.269-1.892-3.789-2.377-5.54l-.044-.157c-.803-2.805-1.44-5.683-1.843-8.573a47.224 47.224 0 0 1-.447-8.313l.03-.712m6.693 8.123c-.317-.435.207-.927.641-.837 2.642.547 5.224 2.148 7.594 3.443l.253.138c1.893 1.022 3.796 2.274 4.79 4.259 1.081 2.158.992 4.643.844 6.989l-.014.219c-.18 2.812-.209 5.734-.804 8.496-.304 1.413-1.582 1.811-2.674 1.477-1.301 4.112-4.953 7.142-7.621 10.386-3.401 4.137-2.761 9.722-2.406 14.704.144 2.017-2.361 2.591-3.651 1.515l-2.973-2.474c-.496-.413-.99-.827-1.483-1.242a86.791 86.791 0 0 1-1.256-1.078l-.62-.548c-.275-.247-1.489-1.604-1.843-1.66-.859-.137-2.901 2.131-3.599 2.842l-.089.089a36.473 36.473 0 0 0-3.609 4.154c-.204.271-.602.046-.456-.266.991-2.128 2.144-4.162 3.513-6.065l.277-.379c.911-1.23 2.133-3.4 3.741-3.764 1.963-.443 3.923 1.529 5.351 2.623l.091.069c.679.511 1.351 1.03 2.022 1.553-.071-3.709.397-7.457 2.309-10.653 1.348-2.255 3.368-3.924 5.097-5.862 1.924-2.157 2.929-4.808 4.671-7.055a1.31 1.31 0 0 1 .868-.494c.067-1.806.333-3.63.538-5.417l.06-.535c.207-1.941.697-4.312-.252-6.13-.896-1.717-2.953-2.929-4.476-4.094l-1.243-.966m-89.308-23.964a9.716 9.716 0 0 0-2.213 1.75c-2.122 2.256-3.64 5.062-5.117 7.762-.795 1.454-1.561 2.924-2.363 4.375a99.718 99.718 0 0 1-1.07 1.879c-.168.287-.666.858-.912 1.209.274.385.557.764.847 1.139.11.143 7.724 8.451 10.378 11.703 4.065 4.98 7.697 10.24 10.803 15.871 3.041 5.514 5.357 11.352 8.174 16.973 1.41 2.814 2.985 5.608 4.992 8.043.078.095.16.185.239.278.766-2.073 2.729-4.292 3.694-5.567l.09-.12c2.186-2.952 4.496-5.816 6.855-8.631a232.086 232.086 0 0 1 6.628-7.558l.852-.926c1.577-1.706 3.58-4.259 5.888-5.478a10.965 10.965 0 0 0-.863-1.309c-2.162-2.831-5.22-4.886-8.237-6.739l-1.956-1.192c-7.375-4.502-14.635-9.212-21.037-15.06-3.388-3.095-6.728-6.337-9.575-9.946l-1.007-1.276m7.215-9.408c-3.453.29-7.183.221-10.374 1.348 2.837 2.687 5.534 5.587 8.304 8.319.247-1.847.751-3.672 1.178-5.474" fill="#000"/><path fill-rule="evenodd" clip-rule="evenodd" d="M268.828 111.141c24.591 0 50.027 19.092 59.041 31.275 7.579 10.243 11.66 56.561 11.66 87.863 0 6.547 3.607 18.888 2.554 25.15-3.857 22.947-20.662 42.192-53.924 42.192-33.261 0-57.109-13.205-81.831-48.66-11.996 0-17.809-9.213-17.893-23.753-.085-14.541 11.578-19.831 11.578-19.831s-4.158-57.381 6.315-72.32c10.473-14.94 37.908-21.916 62.5-21.916Z"/><path fill-rule="evenodd" clip-rule="evenodd" d="M258.479 103.027c15.527-1.574 30.741-.251 46.043 2.486 1.169.212 1.832.981 2.078 1.904 7.207.33 14.423.859 21.62 1.254 2.612.143 4.093 2.728 2.902 5.063a48.17 48.17 0 0 1-.736 1.366l.315-.105c2.166-.695 4.505-1.038 6.614.066 2.686 1.405 3.739 4.507 3.145 7.361-.152.729-.407 1.427-.697 2.109a8.97 8.97 0 0 1 1.771.052c3.136.416 5.466 2.824 5.631 6.029.242 4.841-2.872 9.752-6.54 13.217a6.148 6.148 0 0 1 .515 3.701c-.442 2.59-2.347 4.141-4.555 5.152.921 2.929 1.356 5.99 1.099 9.119-.085 1.045-.997 1.908-1.96 2.119 3.588 9.897 5.405 20.522 6.711 30.875.931 7.367 1.39 14.776 1.446 22.197.028 3.351-.028 6.706-.168 10.057l-.057 1.257c-.173 3.622-.181 7.426-.831 11.01 2.217 3.778 3.11 8.467 3.486 12.701.468 5.24-.273 10.645-1.923 15.63-6.228 18.834-25.024 30.72-43.903 33.809-17.475 2.859-37.697-.989-47.909-16.888-.16-.251.182-.459.381-.294 7.306 5.951 15.782 8.606 24.99 9.898 15.92 2.23 33.816-1.553 46.592-11.581 6.133-4.815 10.555-11.826 12.5-19.37.991-3.856 1.334-7.877.943-11.846-.398-4.025-2.178-7.461-3.299-11.265-.377-1.285.021-2.478.805-3.328.221-3.089.741-6.203.94-9.283.22-3.501.355-7.002.403-10.507.091-7.27-.212-14.553-.823-21.793-1.117-13.257-4.084-26.192-5.825-39.336-.645.579-1.569.817-2.537.311l-.101-.055-.528-.303a.777.777 0 0 0-.096.008c-3.616.352-7.366-.152-10.831-1.232a31.867 31.867 0 0 1-9.997-5.175c-.571 2.902-.81 5.834-.813 8.793-.005 1.848-1.958 2.807-3.509 2.017a146.274 146.274 0 0 1-19.671-12.055c-.728 3.735-1.455 7.47-2.187 11.209-.282 1.44-2.114 2.022-3.288 1.336a41.68 41.68 0 0 1-11.983-10.515 844.639 844.639 0 0 1-1.975 3.763l-.996 1.876c-.983 1.844-2.3 3.883-4.452 4.472-2.278.625-4.18-.854-4.946-2.919a35.582 35.582 0 0 1-.65-1.965c-1.941 4.438-4.132 8.776-6.609 12.914-3.716 6.207-8.177 11.738-12.625 17.412-1.351 1.723-3.664.078-3.85-1.596-.108-.984-.199-1.973-.278-2.959-2.591 5.239-5.296 10.428-8.242 15.467l.422 1.656c1.215 4.892 2.225 9.819 3.322 14.738.355 1.586-.487 3.855-2.338 4.125-2.212.323-4.304 1.455-6.569.676-2.47-.849-2.958-2.987-4.124-5.014a8.203 8.203 0 0 0-.794-1.127l-.074.096c-.182.239-.615-.021-.507-.294l.127-.316c-1.002-1.065-2.201-1.953-3.303-2.909-2.619-.442-5.566.042-7.37 1.108-4.111 2.429-5.998 7.435-6.037 12.038-.048 5.387 1.619 11.443 4.434 16.05 1.239 2.026 2.937 3.856 5.18 4.754 2.226.893 4.639.616 6.904 1.457 1.498.56 2.421 2.226 1.516 3.735-.061.105-.13.2-.196.3l.674.895c.464.621.947 1.285 1.397 1.976 1.152 1.328 2.365 2.608 3.539 3.913 2.169 2.407 4.274 4.881 6.409 7.322 2.014 2.304 4.145 4.468 6.341 6.598 2.074 2.018 4.664 3.714 6.57 5.866 1.853 2.099 2.356 5.764-.693 6.979-3.374 1.348-6.36-1.81-8.631-3.916l-.096-.088c-4.163-3.837-7.922-8.222-10.907-13.049-2.958 2.016-7.235 2.209-10.18.193-1.549-1.061-2.738-2.843-3.316-4.782a6.97 6.97 0 0 1-1.62.185c-.273.159-.547.313-.825.457-2.196 1.145-4.894.634-5.898-1.8-.915-2.21.027-4.719.852-6.848l.17-.44c.467-1.214.983-2.537 1.624-3.782-1.785-1.345-3.31-3.015-4.6-4.915-4.335-6.398-6.501-15.756-5.543-23.39.576-4.607 2.736-9.378 6.275-12.485l-.13-.338c-.992-2.52-1.893-5.049-2.477-7.712-.684-3.115-1.018-6.342-1.321-9.513-.641-6.698-.468-13.548.385-20.219 1.603-12.559 5.665-24.887 12.876-35.337-2.044-2.451-3.664-5.336-2.819-8.654.385-1.523 1.264-2.967 2.59-3.84.731-.481 1.602-.554 2.334-.953l.22-.122c.322-.188.076-.168-.116-1.041-.758-3.488-.13-6.858 3.703-8.016 3.608-1.089 7.021 1.223 9.156 3.977 5.587-3.969 12.95-6.047 19.424-7.812 7.363-2 14.916-3.249 22.5-4.022ZM198.131 220.02c-.026-2.841 2.663-4.593 5.31-4.129 1.777.31 3.26 1.372 4.652 2.47l.678.538c1.696 1.333 3.642 2.77 4.652 4.657 1.482 2.785-1.649 6.533-4.573 4.581-2.005-1.346-3.29-3.503-4.606-5.507l-.136-.206c-.598-.898-1.122-1.853-1.941-2.573l-.177-.155c-.269-.23-.558-.439-.906-.539-.67-.193-1.912.078-2.208.877l-.026.082c-.109.404-.715.317-.719-.096Z" fill="#000"/><path fill-rule="evenodd" clip-rule="evenodd" d="M295.136 265.104a17.64 17.64 0 0 1-7.408-5.709c-.66-.881-.831-1.811-.693-2.663.156-.957.721-1.824 1.492-2.406.773-.583 1.741-.871 2.676-.724.813.127 1.621.573 2.262 1.497l.133.185c1.13 1.53 2.601 2.785 4.277 3.594 1.616.78 3.423 1.144 5.293.932 3.562-.403 6.017-2.332 8.626-4.952.324-.331.647-.672.973-1.019.205-.314.49-.516.806-.622a1.733 1.733 0 0 1 1.113.017c.351.122.665.355.876.664.2.295.313.658.276 1.076-.238 2.715-1.656 5.138-3.669 7.041-2.236 2.113-5.199 3.575-7.99 4.088-3.074.565-6.206.16-9.043-.999Zm10.493-41.886c3.271 1.991 8.254 6.634 4.736 11.57-4.142 4.352-10.104-.638-13.042-2.895-2.725-1.749-5.786 2.749-3.258 4.792 21.232 15.744 29.848-12.947 13.219-15.808-1.831-.316-2.511 1.725-1.655 2.341Zm-38.048-18.315c.362-4.493 7.193-5.513 7.872-1.067.609 3.982-.108 7.64-1.898 11.225-1.712 3.425-6.012 1.827-6.338-1.292-.436-4.18.14-6.072.364-8.866Zm52-1.989c.952-1.25 2.327-2.102 3.975-1.62 5.147 1.506 3.63 8.825 1.822 12.388-.982 1.935-4.157 2.426-5.592.722-2.339-2.778-3.459-8.326-.486-11.062.081-.141.171-.284.281-.428Zm-46.099-17.669.813-.142c2.516-.436 5.643-.855 7.422 1.171.944 1.074 1.269 3.07 0 4.098-2.231 1.809-4.698 1.108-7.372 1.261a29.306 29.306 0 0 0-6.444 1.1c-4.657 1.333-8.451 3.766-12.428 6.438-.522.351-1.055-.317-.806-.806 2.296-4.504 6.745-8.204 11.202-10.459 2.379-1.204 4.982-2.203 7.613-2.661Zm41.406-2.018.623.128c6.772 1.418 15.571 4.25 18.778 10.913.123.942-.007 1.144-.112 1.276l-.035.044c-.086.113-.155.268-.563.396a13.23 13.23 0 0 1-.343-.086c-1.47-.386-2.633-.917-3.759-1.469l-1.221-.602c-1.416-.696-2.845-1.366-4.36-1.861a51.248 51.248 0 0 0-9.931-2.197c-.732-.086-1.437-.333-1.992-.757a2.995 2.995 0 0 1-1.115-1.7c-.238-.958-.17-1.684.344-2.548a3.23 3.23 0 0 1 1.572-1.358 3.695 3.695 0 0 1 2.114-.179Z" fill="#000"/><path fill-rule="evenodd" clip-rule="evenodd" d="M348.914 208.569c-4.129 27.974-32.953 31.068-38.075 3.296.822-.361 1.414-1.07 1.29-2.448-.029-6.052 1.847-12.449 7.298-15.815 5.633-3.473 12.225-3.817 18.743-3.729 12.44-.297 12.178 10.117 10.744 18.696m-42.587-12.167c-3.904-.165-8.843-.027-12.34 2.356-.962-2.594-3.46-5.363-5.984-6.843 9.382.275 19.039-.65 28.491-1.368-2.263 1.545-4.367 3.866-5.736 6.549-1.269-.678-3.087-.615-4.431-.694m-17.208 15.132c-10.825 37.322-37.847 21.055-40.793 16.272-5.313-7.915-6.313-27.155-1.684-32.3 6.625-4.652 16.005-3.454 23.832-3.568 14.379.194 24.591 4.502 18.645 19.596m72.577-17.165c-2.941-.385-6.084-.463-8.818.834-.842-3.584-3.485-6.581-6.47-7.9-.361-.453-.307-.697-1.541-.629-7.577-2.281-16.056-1.074-23.337 1.265-11.5.97-23.564 1.735-35.161 3.071-10.863-4.886-43.645-5.602-45.683 6.441-2.562-.384-6.926-2.404-9.08.336-15.795-2.682-32.117 1.046-47.981 2.706-3.993.736-6.05 8.674-1.517 8.565 2.549-.692-.078-4.942 3.353-5.262 15.306-1.674 30.278-4.05 45.741-4.328-.538 2.674 10.227 2.848 10.386 1.287.023.011.047.019.07.03-2.66 9.929-.259 24.219 4.549 30.376 6.735 8.063 23.646 10.376 31.144 5.188 9.672-4.787 19.734-28.82 16.908-36.805 5.13-1.628 10.201-1.139 15.524-.31-1.218 3.448-3.322 11.937-.295 12.673-.556 16.853 14.757 27.368 28.873 20.455 12.219-5.745 16.492-23.928 14.997-34.965 1.521 2.943 14.292-.261 8.338-3.028" fill="#000"/></svg>