<svg fill="#00000" xmlns="http://www.w3.org/2000/svg" viewBox="75.2 93.43 317.95 452.81"> <path fill-rule="evenodd" clip-rule="evenodd" d="M321.068 341.002C317.613 339.77 314.283 338.347 311.249 336.254C302.502 329.743 296.799 319.944 291.41 310.661C283.819 297.158 278.411 282.771 274.673 267.761C273.067 261.313 272.521 253.836 268.872 248.119C260.599 236.148 236.34 237.699 223.458 239.8C214.832 241.327 213.049 250.981 211.09 258.124C209.459 264.06 208.391 270.063 207.494 276.146C205.362 277.548 202.954 278.687 200.659 279.679C175.648 287.349 171.252 301.568 161.699 323.532C145.565 355.456 101.783 367.956 95.1699 405.737C90.909 430.68 103.026 454.146 115.518 474.882C127.153 497.532 143.395 508.403 169.261 503.052C193.522 497.609 216.838 488.505 240.673 481.469C252.216 478.631 263.742 471.248 275.885 473.822C300.906 479.442 326.614 482.084 352.256 481.355C388.259 482.81 388.253 448.254 384.558 421.493C381.97 379.847 360.965 353.106 321.068 341.002V341.002Z" fill="#fff"></path> <path fill-rule="evenodd" clip-rule="evenodd" d="M323.475 401.264C326.484 403.253 329.014 406.27 331.045 409.444C322.566 408.562 314.1 407.545 305.654 406.387C306.76 405.681 307.876 404.989 309.017 404.337C313.182 401.99 318.825 398.189 323.475 401.264ZM182.59 426.331C181.036 425.723 180.435 423.354 179.829 421.996C177.93 417.737 176.197 413.406 174.395 409.105C181.24 407.154 187.897 404.989 194.988 403.949C202.612 402.832 210.35 402.561 218.045 402.812C233.632 403.321 249.074 405.868 264.398 408.6C279.704 411.328 295.01 413.95 310.423 416.007C325.524 418.022 340.673 419.497 355.85 420.792C358.799 421.044 363.715 422.104 366.087 419.784C367.964 417.946 368.025 414.556 365.676 413.062C364.212 412.13 362.092 412.117 360.42 411.902C358.314 411.631 356.201 411.451 354.082 411.31C353.219 411.253 352.356 411.201 351.493 411.148C358.423 408.535 365.661 407.11 373.174 407.507C373.599 410.089 375.513 412.744 376.56 414.873C378.39 418.59 379.816 422.351 380.752 426.392C382.709 434.839 382.794 443.606 382.241 452.221C381.734 459.404 380.643 467.35 375.009 472.437C370.743 476.289 364.725 477.715 359.141 478.164C352.652 478.685 346.062 478.128 339.627 477.258C330.601 476.038 321.533 474.424 312.685 472.261C295.548 468.072 279.121 461.406 263.966 452.368C256.575 447.962 249.523 443.004 242.031 438.764C234.397 434.444 226.274 431.092 217.744 429.011C208.198 426.682 198.219 425.688 188.408 426.263C186.705 426.362 184.246 426.98 182.59 426.331ZM171.527 422.007C172.531 425.262 173.298 428.979 175.439 431.714C177.56 434.425 180.759 435.382 184.074 435.623C188.07 435.913 192.113 435.727 196.119 435.876C204.333 436.181 212.435 437.515 220.287 439.963C227.605 442.244 234.398 445.802 240.942 449.749C246.993 453.4 252.867 457.319 258.92 460.958C257.309 461.697 255.716 462.496 254.115 463.191C250.756 464.65 247.376 466.057 243.981 467.43C237.287 470.136 230.564 472.776 223.772 475.229C210.078 480.174 196.158 484.495 182.071 488.176C175.352 489.931 168.538 491.982 161.558 492.274C155.368 492.533 149.635 490.783 144.643 487.103C134.29 479.469 126.052 468.451 119.393 457.583C115.437 451.126 111.984 444.341 109.129 437.327C107.684 433.779 106.375 430.177 105.196 426.533C104.643 424.822 104.118 423.102 103.622 421.373C103.403 420.613 103.194 419.851 102.987 419.087C113.574 415.856 124.287 412.94 135.252 411.321C141.106 410.456 147.038 410.018 152.956 410.082C155.894 410.113 158.83 410.272 161.752 410.575C163.325 410.738 164.891 410.949 166.451 411.209C167.095 411.316 167.758 411.474 168.422 411.591C169.437 415.069 170.461 418.544 171.527 422.007ZM390.382 408.178C390.953 407.024 391.194 405.888 391.398 404.631C391.554 403.673 391.968 402.323 391.605 401.079C391.199 399.685 390.094 398.438 389.3 397.249C388.423 395.935 387.548 394.621 386.673 393.305C384.924 390.675 383.178 388.042 381.435 385.407C374.318 374.647 367.25 363.856 360.17 353.071C353.888 343.501 347.711 333.845 341.237 324.403C335.701 316.33 329.667 308.389 322.09 302.11C312.509 294.171 301.101 290.431 289.184 287.513C287.883 286.162 286.144 285.424 284.286 285.574C281.661 282.596 279.575 280.516 278.629 276.73C278.176 274.916 278.318 269.82 276.551 268.747C274.453 267.472 273.358 269.159 272.779 271.061C270.843 277.424 273.065 285.978 278.178 292.352C276.024 299.797 273.168 310.378 268.073 316.343C262.617 322.73 255.072 324.718 246.931 324.849C231.406 325.099 215.898 319.328 204.056 309.328C200.457 306.289 197.114 302.894 194.09 299.284C191.822 296.575 189.138 292.395 187.364 289.236C187.364 288.005 185.91 286.717 200.709 285.722C215.508 284.728 216.63 264.463 216.959 261.705C217.226 259.466 218.364 255.989 216.786 254.163C216.116 253.388 214.742 253.263 213.893 253.79C212.291 254.784 211.765 257.327 211.262 259.053C210.557 261.472 208.252 276.484 203.884 278.222C201.84 279.036 199.495 279.051 197.332 279.202C194.661 279.388 191.984 279.525 189.324 279.836C188.343 279.95 187.272 280.268 186.304 280.277C185.674 280.283 185.025 279.977 184.416 279.762C182.361 279.036 180.308 279.581 178.191 279.865C159.476 282.38 140.206 288.121 124.243 298.45C110.173 307.555 100.26 320.648 93.7194 335.956C87.0457 351.579 83.2204 368.473 80.0146 385.105C78.9407 390.677 78.0029 396.275 77.1972 401.892C76.4185 407.32 75.4445 412.87 75.2113 418.353C75.119 420.522 75.6374 422.537 76.4352 424.519C77.3336 426.749 79.4572 427.629 81.4939 428.67C85.965 430.957 90.6816 432.731 95.541 433.987C98.5096 439.388 101.008 445 103.016 450.824C102.271 452.3 102.255 454.504 102.112 455.939C101.757 459.511 101.605 463.101 101.573 466.69C101.509 473.882 101.941 481.067 102.28 488.248C102.624 495.532 103.767 524.269 103.953 527.778C104.098 530.504 103.903 534.317 105.339 536.737C107.546 540.457 112.992 540.332 115.514 537.316C178.191 550.79 296.006 546.732 343.456 539.952C349.629 539.07 347.691 540.049 349.261 538.489C350.439 537.317 351.442 535.311 351.768 533.699C352.203 531.548 351.5 529.6 350.268 527.859C348.973 526.028 348.737 523.064 348.256 520.887C347.119 515.742 346.553 493.145 346.022 490.641C345.856 489.86 345.696 489.035 345.503 488.21C354.206 489.035 363.275 489.035 371.556 486.123C376.251 484.472 380.63 481.879 384.001 478.177C388.083 473.693 390.354 468.049 391.521 462.158C393.028 454.562 393.348 446.693 393.052 438.971C392.641 429.844 391.127 420.589 387.37 412.21C388.606 411.062 389.643 409.676 390.382 408.178Z"></path> <path fill-rule="evenodd" clip-rule="evenodd" d="M246.972 101.49C269.564 101.49 292.932 119.003 301.213 130.178C308.176 139.574 311.925 182.061 311.925 210.775C311.925 216.78 315.239 228.1 314.272 233.845C310.728 254.894 295.289 272.547 264.732 272.547C234.175 272.547 212.266 260.434 189.553 227.912C178.533 227.912 173.192 219.46 173.115 206.123C173.037 192.785 183.752 187.933 183.752 187.933C183.752 187.933 179.932 135.297 189.553 121.593C199.175 107.89 224.379 101.49 246.972 101.49Z" fill="#fff"></path> <path fill-rule="evenodd" clip-rule="evenodd" d="M237.464 94.0475C251.729 92.6031 265.706 93.8167 279.764 96.328C280.838 96.5225 281.447 97.2272 281.673 98.0744C288.295 98.3768 294.923 98.8627 301.536 99.2248C303.935 99.3561 305.296 101.727 304.202 103.868C303.983 104.294 303.756 104.708 303.525 105.121L303.815 105.026C305.804 104.388 307.953 104.073 309.891 105.086C312.358 106.375 313.326 109.22 312.781 111.838C312.641 112.507 312.406 113.147 312.14 113.772C312.681 113.737 313.226 113.749 313.767 113.82C316.648 114.202 318.789 116.411 318.94 119.351C319.163 123.791 316.302 128.296 312.932 131.475C313.421 132.482 313.608 133.668 313.405 134.87C312.999 137.245 311.249 138.668 309.221 139.596C310.067 142.282 310.466 145.091 310.23 147.961C310.152 148.919 309.314 149.71 308.429 149.904C311.726 158.982 313.395 168.729 314.595 178.226C315.45 184.983 315.872 191.779 315.923 198.587C315.949 201.661 315.898 204.738 315.769 207.812L315.717 208.965C315.558 212.288 315.55 215.777 314.953 219.064C316.99 222.53 317.81 226.831 318.156 230.715C318.586 235.521 317.905 240.479 316.389 245.052C310.667 262.329 293.399 273.232 276.055 276.065C260.001 278.687 241.423 275.158 232.041 260.574C231.894 260.343 232.208 260.153 232.391 260.304C239.104 265.763 246.89 268.198 255.349 269.384C269.976 271.429 286.416 267.959 298.154 258.76C303.788 254.343 307.85 247.913 309.637 240.993C310.548 237.456 310.863 233.767 310.504 230.126C310.138 226.433 308.503 223.282 307.473 219.792C307.127 218.614 307.493 217.52 308.213 216.74C308.415 213.907 308.893 211.05 309.076 208.225C309.279 205.013 309.402 201.802 309.446 198.587C309.53 191.918 309.251 185.237 308.69 178.596C307.664 166.436 304.938 154.57 303.339 142.513C302.746 143.044 301.897 143.263 301.008 142.798L300.916 142.748L300.43 142.47C300.402 142.47 300.37 142.474 300.342 142.477C297.02 142.8 293.574 142.339 290.391 141.347C287.061 140.313 283.969 138.722 281.208 136.601C280.683 139.262 280.464 141.952 280.46 144.666C280.456 146.361 278.662 147.241 277.237 146.517C270.923 143.309 264.891 139.613 259.165 135.459C258.496 138.885 257.828 142.31 257.155 145.74C256.897 147.062 255.214 147.595 254.136 146.966C249.847 144.471 246.142 141.205 243.126 137.321C242.524 138.472 241.92 139.623 241.312 140.772L240.397 142.493C239.494 144.185 238.284 146.055 236.307 146.596C234.214 147.169 232.467 145.812 231.763 143.918C231.548 143.329 231.349 142.724 231.166 142.115C229.383 146.186 227.37 150.166 225.094 153.962C221.68 159.655 217.582 164.729 213.496 169.933C212.254 171.514 210.13 170.005 209.958 168.47C209.859 167.566 209.775 166.659 209.703 165.755C207.322 170.561 204.838 175.321 202.131 179.943L202.519 181.462V181.462C203.636 185.949 204.563 190.469 205.571 194.98C205.897 196.436 205.123 198.517 203.423 198.765C201.391 199.061 199.469 200.099 197.388 199.385C195.119 198.606 194.67 196.644 193.599 194.785C193.386 194.415 193.137 194.075 192.87 193.752L192.802 193.84V193.84C192.634 194.059 192.237 193.821 192.336 193.57L192.453 193.28V193.28C191.532 192.303 190.431 191.488 189.418 190.612C187.012 190.206 184.305 190.65 182.647 191.628C178.871 193.856 177.137 198.448 177.101 202.67C177.057 207.612 178.589 213.167 181.175 217.393C182.313 219.251 183.873 220.93 185.934 221.754C187.979 222.573 190.195 222.319 192.276 223.091C193.653 223.604 194.501 225.132 193.669 226.517C193.613 226.612 193.55 226.7 193.49 226.792L194.108 227.613C194.534 228.182 194.978 228.791 195.392 229.425C196.45 230.643 197.564 231.817 198.643 233.015C200.636 235.223 202.57 237.491 204.531 239.731C206.381 241.845 208.339 243.83 210.356 245.784C212.262 247.634 214.642 249.19 216.392 251.164C218.095 253.09 218.557 256.452 215.755 257.566C212.656 258.802 209.912 255.905 207.826 253.974L207.738 253.893C203.914 250.373 200.46 246.351 197.717 241.923C195.001 243.772 191.071 243.949 188.366 242.1C186.942 241.127 185.85 239.492 185.319 237.713C184.819 237.826 184.319 237.891 183.831 237.884C183.58 238.029 183.328 238.171 183.073 238.303C181.056 239.353 178.577 238.884 177.654 236.651C176.813 234.625 177.68 232.323 178.437 230.37L178.593 229.966C179.023 228.853 179.496 227.639 180.085 226.497C178.446 225.264 177.045 223.731 175.86 221.989C171.877 216.12 169.887 207.536 170.767 200.533C171.296 196.307 173.281 191.93 176.532 189.081L176.413 188.771V188.771C175.501 186.459 174.673 184.139 174.137 181.696C173.508 178.839 173.201 175.879 172.923 172.97C172.334 166.826 172.493 160.543 173.277 154.423C174.749 142.904 178.482 131.595 185.106 122.009C183.228 119.761 181.74 117.115 182.516 114.071C182.87 112.674 183.678 111.349 184.896 110.549C185.568 110.108 186.368 110.04 187.04 109.674L187.242 109.563C187.538 109.39 187.312 109.409 187.136 108.608C186.439 105.408 187.016 102.317 190.538 101.254C193.852 100.255 196.987 102.376 198.949 104.903C204.082 101.262 210.846 99.3561 216.794 97.7366C223.558 95.9018 230.497 94.7562 237.464 94.0475ZM182.023 201.365C181.999 198.758 184.47 197.151 186.901 197.577C188.534 197.861 189.896 198.836 191.175 199.843L191.798 200.336C193.356 201.559 195.144 202.877 196.072 204.608C197.433 207.163 194.556 210.6 191.871 208.81C190.028 207.575 188.847 205.597 187.639 203.759L187.514 203.569C186.965 202.745 186.483 201.87 185.731 201.209L185.568 201.067C185.321 200.856 185.056 200.664 184.736 200.573C184.12 200.396 182.979 200.644 182.707 201.377L182.683 201.452C182.584 201.823 182.027 201.743 182.023 201.365Z"></path> <path fill-rule="evenodd" clip-rule="evenodd" d="M271.142 242.72C268.467 241.628 266.08 239.808 264.336 237.483C263.729 236.675 263.572 235.821 263.699 235.04C263.842 234.162 264.361 233.367 265.07 232.833C265.78 232.298 266.669 232.034 267.528 232.168C268.274 232.285 269.018 232.694 269.606 233.542L269.729 233.711C270.766 235.115 272.118 236.266 273.658 237.008C275.142 237.724 276.802 238.058 278.521 237.864C281.793 237.494 284.048 235.724 286.445 233.321C286.742 233.018 287.04 232.705 287.338 232.387C287.527 232.098 287.789 231.913 288.08 231.816C288.402 231.708 288.768 231.714 289.102 231.831C289.425 231.943 289.713 232.157 289.906 232.441C290.09 232.711 290.194 233.044 290.16 233.427C289.941 235.918 288.639 238.141 286.79 239.886C284.735 241.824 282.013 243.165 279.449 243.636C276.625 244.154 273.747 243.783 271.142 242.72V242.72ZM280.781 204.297C283.786 206.124 288.364 210.383 285.132 214.911C281.327 218.903 275.849 214.325 273.15 212.255C270.647 210.651 267.835 214.777 270.157 216.651C289.663 231.093 297.579 204.775 282.301 202.15C280.619 201.861 279.994 203.732 280.781 204.297ZM245.827 187.497C246.159 183.376 252.434 182.44 253.059 186.518C253.618 190.171 252.96 193.527 251.314 196.815C249.742 199.957 245.791 198.492 245.492 195.631C245.092 191.796 245.62 190.061 245.827 187.497ZM293.599 185.673C294.473 184.527 295.737 183.744 297.25 184.187C301.979 185.569 300.585 192.283 298.925 195.551C298.022 197.325 295.105 197.775 293.787 196.213C291.639 193.664 290.61 188.576 293.341 186.066C293.415 185.936 293.497 185.805 293.599 185.673ZM251.248 169.465L251.995 169.335C254.306 168.935 257.179 168.551 258.814 170.409C259.681 171.394 259.979 173.225 258.814 174.168C256.764 175.828 254.497 175.185 252.041 175.325C250.016 175.441 248.071 175.776 246.121 176.334C241.842 177.557 238.357 179.789 234.703 182.24C234.223 182.562 233.734 181.948 233.963 181.5C236.072 177.368 240.159 173.975 244.254 171.906C246.439 170.802 248.83 169.886 251.248 169.465ZM289.288 167.615L289.859 167.732C296.081 169.032 304.165 171.63 307.111 177.742C307.224 178.606 307.105 178.792 307.009 178.913L306.976 178.953C306.897 179.056 306.834 179.199 306.459 179.316C306.355 179.291 306.25 179.265 306.144 179.237C304.793 178.883 303.725 178.396 302.69 177.89L301.569 177.337C300.267 176.699 298.955 176.084 297.563 175.63C294.594 174.662 291.54 173.98 288.439 173.615C287.767 173.536 287.12 173.31 286.609 172.921C286.124 172.552 285.754 172.041 285.585 171.361C285.366 170.482 285.429 169.817 285.901 169.024C286.255 168.428 286.763 168.016 287.345 167.779C287.939 167.537 288.616 167.48 289.288 167.615Z"></path> <path fill-rule="evenodd" clip-rule="evenodd" d="M320.547 190.86C316.754 216.521 290.273 219.359 285.568 193.884C286.323 193.553 286.866 192.902 286.753 191.638C286.726 186.087 288.449 180.219 293.457 177.132C298.632 173.946 304.688 173.63 310.677 173.71C322.105 173.438 321.865 182.991 320.547 190.86M281.422 179.7C277.836 179.548 273.298 179.675 270.085 181.86C269.202 179.482 266.907 176.942 264.588 175.584C273.207 175.836 282.079 174.988 290.763 174.329C288.684 175.746 286.75 177.875 285.493 180.336C284.327 179.714 282.657 179.772 281.422 179.7M265.613 193.58C255.668 227.815 230.844 212.894 228.137 208.506C223.256 201.246 222.337 183.597 226.589 178.878C232.676 174.611 241.293 175.709 248.484 175.604C261.694 175.783 271.076 179.735 265.613 193.58M332.29 177.835C329.588 177.481 326.701 177.41 324.188 178.6C323.415 175.312 320.987 172.563 318.245 171.353C317.913 170.937 317.963 170.714 316.829 170.776C309.868 168.684 302.079 169.791 295.389 171.936C284.825 172.826 273.741 173.528 263.087 174.754C253.107 170.271 222.99 169.615 221.118 180.662C218.764 180.31 214.755 178.457 212.776 180.97C198.265 178.51 183.271 181.929 168.696 183.452C165.028 184.128 163.138 191.409 167.303 191.309C169.644 190.674 167.231 186.775 170.383 186.482C184.445 184.946 198.199 182.767 212.405 182.512C211.911 184.965 221.8 185.125 221.946 183.692C221.968 183.703 221.99 183.71 222.011 183.72C219.568 192.828 221.773 205.936 226.19 211.584C232.378 218.98 247.913 221.101 254.802 216.343C263.688 211.951 272.932 189.906 270.336 182.582C275.048 181.088 279.707 181.537 284.598 182.298C283.478 185.461 281.545 193.247 284.326 193.922C283.816 209.381 297.884 219.027 310.852 212.685C322.077 207.416 326.003 190.736 324.629 180.612C326.027 183.312 337.76 180.373 332.29 177.835"></path> </svg>