<svg fill="#0ff" xmlns="http://www.w3.org/2000/svg" viewBox="16.71 21.89 317.95 450.09"><path fill-rule="evenodd" clip-rule="evenodd" d="M262.579 266.736c-3.455-1.232-6.785-2.655-9.82-4.748-8.747-6.511-14.45-16.31-19.839-25.593-7.591-13.503-12.998-27.89-16.737-42.9-1.606-6.448-2.151-13.925-5.801-19.642-8.273-11.971-32.531-10.42-45.413-8.319-8.626 1.526-10.409 11.181-12.368 18.324-1.632 5.936-2.7 11.939-3.596 18.022-2.133 1.402-4.54 2.541-6.835 3.533-25.011 7.67-29.407 21.889-38.96 43.853-16.135 31.924-59.916 44.424-66.53 82.205-4.26 24.943 7.856 48.409 20.349 69.145 11.634 22.65 27.876 33.521 53.743 28.17 24.261-5.443 47.577-14.547 71.411-21.583 11.544-2.838 23.07-10.221 35.213-7.647 25.021 5.62 50.729 8.262 76.371 7.532 36.003 1.456 35.997-33.1 32.302-59.861-2.588-41.646-23.593-68.387-63.49-80.491Z"/><path fill-rule="evenodd" clip-rule="evenodd" d="M264.986 326.998c3.008 1.989 5.539 5.006 7.57 8.18a784.042 784.042 0 0 1-25.391-3.057 78.096 78.096 0 0 1 3.363-2.05c4.165-2.347 9.807-6.148 14.458-3.073ZM124.1 352.065c-1.554-.608-2.155-2.977-2.761-4.335-1.898-4.259-3.631-8.59-5.434-12.891 6.845-1.951 13.502-4.116 20.593-5.156 7.625-1.118 15.362-1.388 23.057-1.137 15.587.508 31.029 3.056 46.353 5.788 15.307 2.728 30.612 5.35 46.026 7.407 15.101 2.015 30.249 3.49 45.426 4.785 2.949.252 7.866 1.312 10.237-1.008 1.878-1.838 1.939-5.228-.411-6.722-1.463-.932-3.583-.945-5.255-1.16-2.106-.271-4.22-.451-6.338-.592-.863-.057-1.726-.109-2.59-.162 6.93-2.613 14.168-4.038 21.681-3.641.425 2.582 2.339 5.237 3.387 7.366 1.829 3.717 3.255 7.478 4.192 11.519 1.956 8.447 2.042 17.214 1.489 25.829-.508 7.183-1.598 15.129-7.232 20.216-4.266 3.852-10.285 5.278-15.868 5.726-6.49.522-13.08-.035-19.515-.905-9.025-1.22-18.093-2.834-26.941-4.997-17.138-4.189-33.564-10.855-48.719-19.893-7.391-4.407-14.443-9.365-21.935-13.604-7.635-4.32-15.758-7.672-24.288-9.753-9.546-2.329-19.525-3.323-29.336-2.748-1.702.099-4.162.717-5.818.068Zm-11.062-4.324c1.003 3.255 1.771 6.972 3.912 9.707 2.12 2.711 5.32 3.667 8.634 3.909 3.997.29 8.04.104 12.045.253 8.214.305 16.316 1.639 24.169 4.087 7.318 2.281 14.111 5.839 20.655 9.786 6.051 3.651 11.924 7.57 17.977 11.209-1.611.739-3.203 1.538-4.805 2.233a433.165 433.165 0 0 1-10.133 4.239c-6.695 2.706-13.417 5.346-20.209 7.798a480.14 480.14 0 0 1-41.701 12.948c-6.719 1.755-13.533 3.806-20.513 4.098-6.19.258-11.923-1.491-16.915-5.171-10.354-7.634-18.591-18.652-25.25-29.52a139.538 139.538 0 0 1-10.265-20.257 155.717 155.717 0 0 1-3.933-10.793 164.432 164.432 0 0 1-1.574-5.16c-.218-.76-.428-1.522-.635-2.286 10.587-3.231 21.3-6.147 32.265-7.767 5.854-.864 11.786-1.302 17.705-1.238 2.937.031 5.873.19 8.795.493 1.573.163 3.14.373 4.699.634.645.107 1.307.265 1.972.382a727.641 727.641 0 0 0 3.105 10.416Zm218.855-13.829c.57-1.155.811-2.29 1.016-3.547.155-.958.569-2.308.207-3.552-.406-1.394-1.512-2.641-2.306-3.83-.876-1.314-1.752-2.628-2.626-3.944-1.75-2.631-3.495-5.264-5.238-7.899-7.117-10.76-14.186-21.551-21.265-32.335-6.283-9.57-12.46-19.226-18.934-28.668-5.536-8.073-11.569-16.014-19.147-22.293-9.581-7.939-20.989-11.679-32.905-14.597-1.302-1.351-3.04-2.089-4.898-1.939-2.625-2.978-4.712-5.058-5.658-8.844-.453-1.814-.311-6.91-2.077-7.983-2.098-1.275-3.194.412-3.772 2.314-1.936 6.363.286 14.917 5.398 21.29-2.154 7.446-5.01 18.027-10.105 23.992-5.455 6.387-13.001 8.375-21.141 8.506-15.525.249-31.034-5.521-42.875-15.521-3.599-3.039-6.942-6.434-9.966-10.044-2.269-2.709-4.952-6.889-6.727-10.048 0-1.231-1.453-2.519 13.345-3.514 14.799-.995 15.921-21.259 16.251-24.017.267-2.239 1.404-5.716-.174-7.542-.67-.775-2.044-.9-2.893-.373-1.601.994-2.127 3.537-2.63 5.263-.705 2.419-3.01 17.431-7.378 19.169-2.045.814-4.39.829-6.553.98-2.671.186-5.347.323-8.008.633-.981.115-2.051.433-3.019.442-.63.006-1.28-.3-1.889-.515-2.054-.726-4.107-.182-6.224.103-18.715 2.515-37.985 8.256-53.949 18.585-14.07 9.104-23.982 22.198-30.523 37.506-6.674 15.623-10.5 32.517-13.705 49.148a355.58 355.58 0 0 0-2.817 16.788c-.779 5.428-1.753 10.978-1.986 16.46-.093 2.17.426 4.185 1.224 6.167.898 2.23 3.022 3.11 5.058 4.151a68.464 68.464 0 0 0 14.047 5.317 107.942 107.942 0 0 1 7.475 16.837c-.745 1.476-.76 3.68-.903 5.114-.356 3.573-.508 7.163-.54 10.752-.064 7.192.369 14.377.708 21.558.344 7.284 1.486 36.02 1.673 39.53.144 2.726-.05 6.539 1.385 8.959 2.207 3.72 7.653 3.595 10.176.579 62.677 13.474 180.492 9.416 227.941 2.636 6.174-.882 4.235.096 5.805-1.463 1.179-1.172 2.181-3.178 2.507-4.79.435-2.152-.267-4.099-1.499-5.84-1.295-1.831-1.531-4.795-2.012-6.972-1.138-5.145-1.703-27.743-2.235-30.247-.165-.78-.326-1.605-.519-2.43 8.704.824 17.773.824 26.053-2.087 4.696-1.651 9.075-4.244 12.446-7.946 4.081-4.484 6.352-10.128 7.52-16.019 1.507-7.596 1.827-15.465 1.531-23.187-.412-9.127-1.925-18.382-5.682-26.762a14.023 14.023 0 0 0 3.012-4.031Z" fill="#000"/><path fill-rule="evenodd" clip-rule="evenodd" d="M192.305 29.947c22.592 0 45.96 17.513 54.242 28.688 6.962 9.396 10.711 51.883 10.711 80.597 0 6.005 3.314 17.325 2.347 23.069-3.544 21.05-18.983 38.703-49.54 38.703s-52.466-12.113-75.178-44.635c-11.021 0-16.361-8.452-16.439-21.789-.078-13.338 10.637-18.191 10.637-18.191s-3.82-52.635 5.802-66.339c9.621-13.704 34.826-20.103 57.418-20.103Z"/><path fill-rule="evenodd" clip-rule="evenodd" d="M182.798 22.504c14.264-1.444 28.242-.23 42.299 2.28 1.074.195 1.683.9 1.91 1.747 6.621.303 13.25.788 19.862 1.15 2.4.132 3.76 2.503 2.666 4.644-.219.426-.446.84-.676 1.253l.289-.095c1.99-.639 4.138-.953 6.077.06 2.467 1.289 3.434 4.134 2.889 6.752-.14.669-.374 1.31-.641 1.934a8.259 8.259 0 0 1 1.628.048c2.88.382 5.021 2.59 5.172 5.531.223 4.44-2.638 8.945-6.008 12.124a5.629 5.629 0 0 1 .473 3.395c-.406 2.375-2.156 3.798-4.184 4.726.846 2.686 1.246 5.494 1.01 8.365-.079.958-.917 1.75-1.802 1.943 3.297 9.078 4.966 18.825 6.166 28.322.856 6.757 1.277 13.553 1.329 20.361.025 3.074-.026 6.151-.155 9.225l-.052 1.152c-.159 3.323-.167 6.813-.764 10.1 2.037 3.465 2.857 7.767 3.203 11.65.43 4.807-.25 9.765-1.767 14.338-5.721 17.277-22.989 28.179-40.334 31.013-16.054 2.622-34.631-.907-44.014-15.491-.147-.231.168-.422.351-.27 6.712 5.458 14.498 7.894 22.958 9.08 14.626 2.045 31.066-1.425 42.804-10.624 5.634-4.417 9.697-10.847 11.483-17.768.912-3.537 1.226-7.226.867-10.866-.366-3.693-2.001-6.844-3.031-10.334-.346-1.178.02-2.272.74-3.052.203-2.833.68-5.69.863-8.515.203-3.212.327-6.423.37-9.638.084-6.669-.194-13.35-.756-19.991-1.026-12.16-3.752-24.026-5.351-36.083-.592.531-1.441.75-2.331.285l-.092-.05-.486-.278c-.028 0-.059.004-.088.007-3.322.323-6.767-.139-9.95-1.13a29.275 29.275 0 0 1-9.184-4.746c-.525 2.661-.744 5.351-.748 8.065-.004 1.695-1.798 2.575-3.223 1.85a134.482 134.482 0 0 1-18.072-11.057c-.668 3.425-1.336 6.851-2.009 10.281-.259 1.322-1.942 1.855-3.02 1.226a38.27 38.27 0 0 1-11.009-9.646 892.019 892.019 0 0 1-1.814 3.452l-.916 1.721c-.903 1.691-2.113 3.562-4.09 4.103-2.093.573-3.84-.784-4.544-2.678a32.675 32.675 0 0 1-.597-1.803c-1.783 4.071-3.796 8.05-6.072 11.846-3.414 5.694-7.512 10.767-11.598 15.972-1.241 1.58-3.366.072-3.537-1.464a88.75 88.75 0 0 1-.255-2.714c-2.381 4.805-4.866 9.566-7.573 14.188l.388 1.519c1.117 4.487 2.044 9.007 3.053 13.518.325 1.456-.448 3.537-2.149 3.785-2.032.296-3.954 1.334-6.035.62-2.269-.779-2.717-2.741-3.788-4.6a7.66 7.66 0 0 0-.73-1.034l-.068.089c-.167.219-.565-.02-.466-.27l.117-.29c-.92-.977-2.022-1.792-3.034-2.668-2.407-.406-5.114.038-6.772 1.016-3.776 2.228-5.51 6.82-5.546 11.042-.044 4.942 1.488 10.497 4.074 14.723 1.139 1.858 2.698 3.537 4.759 4.361 2.045.819 4.262.565 6.343 1.336 1.376.514 2.224 2.042 1.392 3.426-.055.096-.119.183-.179.275l.619.822c.425.569.869 1.178 1.283 1.812 1.058 1.218 2.173 2.392 3.251 3.59 1.993 2.208 3.927 4.476 5.888 6.716 1.851 2.113 3.808 4.099 5.826 6.052 1.905 1.851 4.285 3.406 6.036 5.38 1.702 1.926 2.164 5.288-.637 6.403-3.1 1.236-5.843-1.661-7.93-3.592l-.087-.081c-3.825-3.52-7.279-7.542-10.021-11.97-2.717 1.849-6.647 2.026-9.352.177-1.423-.973-2.516-2.608-3.046-4.387a6.435 6.435 0 0 1-1.489.171c-.251.145-.503.287-.758.419-2.017 1.05-4.496.581-5.419-1.652-.84-2.027.026-4.328.783-6.281l.156-.404c.43-1.113.903-2.327 1.492-3.469-1.639-1.234-3.04-2.766-4.225-4.508-3.983-5.87-5.973-14.453-5.093-21.456.529-4.226 2.514-8.603 5.765-11.452l-.119-.311c-.911-2.311-1.739-4.631-2.276-7.074-.629-2.857-.936-5.818-1.214-8.726-.588-6.144-.429-12.427.354-18.547 1.473-11.52 5.205-22.828 11.83-32.414-1.879-2.249-3.366-4.895-2.591-7.938.355-1.397 1.162-2.722 2.38-3.522.672-.441 1.472-.51 2.144-.875l.203-.112c.295-.172.069-.154-.107-.955-.696-3.2-.119-6.29 3.402-7.353 3.314-.999 6.45 1.122 8.411 3.649 5.133-3.642 11.897-5.547 17.845-7.167 6.765-1.834 13.703-2.98 20.671-3.689Zm-55.442 107.317c-.024-2.606 2.447-4.213 4.878-3.787 1.633.284 2.995 1.258 4.274 2.265l.623.494c1.558 1.223 3.346 2.541 4.274 4.272 1.361 2.554-1.515 5.992-4.201 4.201-1.842-1.234-3.023-3.213-4.232-5.051l-.125-.189c-.549-.824-1.03-1.699-1.783-2.36l-.162-.142c-.248-.211-.513-.403-.833-.494-.616-.178-1.757.071-2.028.804l-.025.075c-.099.37-.656.29-.66-.088Z" fill="#000"/><path fill-rule="evenodd" clip-rule="evenodd" d="M216.142 170.719a16.191 16.191 0 0 1-6.806-5.236c-.607-.808-.764-1.662-.637-2.443.143-.878.662-1.673 1.371-2.207.71-.535 1.599-.799 2.458-.665.746.117 1.49.526 2.078 1.374l.123.169c1.037 1.404 2.389 2.555 3.929 3.297 1.484.716 3.144 1.05 4.863.856 3.272-.37 5.527-2.14 7.924-4.543.297-.304.595-.616.893-.934.189-.289.451-.474.742-.571a1.591 1.591 0 0 1 1.022.015c.323.112.611.326.804.61.184.269.288.603.254.986-.219 2.491-1.521 4.714-3.37 6.459-2.055 1.938-4.777 3.279-7.341 3.75-2.824.518-5.702.147-8.307-.917Zm9.639-38.422c3.005 1.827 7.583 6.086 4.351 10.614-3.805 3.992-9.283-.586-11.982-2.656-2.503-1.604-5.315 2.522-2.993 4.396 19.506 14.442 27.422-11.876 12.144-14.501-1.682-.289-2.307 1.582-1.52 2.147Zm-34.954-16.8c.332-4.121 6.607-5.057 7.232-.979.559 3.653-.099 7.009-1.745 10.297-1.572 3.142-5.523 1.676-5.822-1.184-.4-3.836.128-5.57.335-8.134Zm47.771-1.824c.875-1.146 2.139-1.929 3.652-1.486 4.729 1.381 3.335 8.095 1.675 11.364-.903 1.774-3.82 2.224-5.138.662-2.149-2.549-3.177-7.638-.446-10.148a3.5 3.5 0 0 1 .257-.392Zm-42.35-16.208.747-.13c2.311-.4 5.184-.784 6.819 1.074.867.985 1.165 2.816 0 3.759-2.05 1.66-4.317 1.017-6.773 1.157-2.025.116-3.97.451-5.92 1.009-4.279 1.222-7.764 3.455-11.418 5.906-.48.321-.969-.292-.74-.74 2.109-4.132 6.196-7.526 10.291-9.594 2.185-1.105 4.576-2.02 6.994-2.44Zm38.04-1.85.571.117c6.222 1.3 14.306 3.898 17.252 10.01.113.864-.006 1.05-.103 1.171l-.032.04c-.079.103-.143.246-.517.363a14.507 14.507 0 0 1-.315-.079c-1.351-.354-2.419-.841-3.454-1.347l-1.121-.553c-1.302-.638-2.614-1.253-4.006-1.707a47.262 47.262 0 0 0-9.124-2.015c-.672-.079-1.319-.305-1.83-.694a2.748 2.748 0 0 1-1.024-1.56c-.219-.879-.156-1.544.316-2.337a2.96 2.96 0 0 1 1.444-1.245 3.392 3.392 0 0 1 1.943-.164Z" fill="#000"/><path fill-rule="evenodd" clip-rule="evenodd" d="M265.547 118.86c-3.793 25.661-30.274 28.499-34.979 3.024.755-.331 1.298-.982 1.185-2.246-.027-5.552 1.697-11.419 6.704-14.507 5.175-3.185 11.231-3.501 17.22-3.421 11.428-.272 11.188 9.281 9.87 17.15m-39.125-11.16c-3.586-.152-8.124-.025-11.337 2.16-.883-2.378-3.178-4.918-5.497-6.276 8.619.252 17.491-.597 26.175-1.255-2.079 1.417-4.012 3.546-5.269 6.007-1.167-.622-2.837-.564-4.072-.636m-15.808 13.88c-9.946 34.235-34.77 19.313-37.477 14.926-4.881-7.26-5.8-24.909-1.547-29.628 6.086-4.267 14.703-3.169 21.894-3.274 13.21.179 22.593 4.131 17.13 17.976m66.676-15.745c-2.702-.354-5.589-.425-8.101.765-.774-3.288-3.202-6.037-5.944-7.247-.332-.416-.282-.64-1.416-.577-6.961-2.092-14.75-.985-21.44 1.16-10.564.89-21.648 1.592-32.302 2.818-9.979-4.483-40.097-5.14-41.968 5.908-2.355-.352-6.364-2.206-8.342.308-14.512-2.46-29.506.959-44.08 2.482-3.669.676-5.559 7.957-1.394 7.857 2.341-.635-.072-4.534 3.08-4.827 14.062-1.536 27.816-3.715 42.022-3.97-.494 2.453 9.396 2.613 9.542 1.18.021.011.043.018.064.028-2.443 9.108-.237 22.216 4.179 27.864 6.188 7.396 21.724 9.517 28.612 4.759 8.886-4.392 18.13-26.437 15.534-33.761 4.712-1.494 9.371-1.045 14.262-.284-1.12 3.163-3.053 10.949-.272 11.624-.51 15.459 13.558 25.105 26.527 18.763 11.224-5.269 15.15-21.949 13.776-32.073 1.398 2.7 13.131-.24 7.661-2.777" fill="#000"/></svg>